<mxfile host="app.diagrams.net" modified="2023-04-29T08:40:26.396Z" agent="Mozilla/5.0 (Windows NT 10.0; Win64; x64) AppleWebKit/537.36 (KHTML, like Gecko) Chrome/110.0.0.0 YaBrowser/23.3.3.719 Yowser/2.5 Safari/537.36" etag="PnqSdvlNJjhEKv1p4dKi" version="21.2.2" type="device">
  <diagram name="Страница 1" id="LXC25HSEaa7ZcI5LnNty">
    <mxGraphModel dx="1221" dy="633" grid="0" gridSize="10" guides="1" tooltips="1" connect="1" arrows="1" fold="1" page="0" pageScale="1" pageWidth="827" pageHeight="1169" math="0" shadow="0">
      <root>
        <mxCell id="0" />
        <mxCell id="1" parent="0" />
        <mxCell id="lOXssVLxFtPVB_tmpfgO-11" style="rounded=0;orthogonalLoop=1;jettySize=auto;html=1;endArrow=none;endFill=0;strokeWidth=2;" edge="1" parent="1" source="lOXssVLxFtPVB_tmpfgO-1" target="lOXssVLxFtPVB_tmpfgO-3">
          <mxGeometry relative="1" as="geometry" />
        </mxCell>
        <mxCell id="lOXssVLxFtPVB_tmpfgO-12" style="rounded=0;orthogonalLoop=1;jettySize=auto;html=1;endArrow=none;endFill=0;strokeWidth=2;" edge="1" parent="1" source="lOXssVLxFtPVB_tmpfgO-1" target="lOXssVLxFtPVB_tmpfgO-6">
          <mxGeometry relative="1" as="geometry" />
        </mxCell>
        <mxCell id="lOXssVLxFtPVB_tmpfgO-1" value="2" style="ellipse;whiteSpace=wrap;html=1;aspect=fixed;" vertex="1" parent="1">
          <mxGeometry x="155" y="200" width="50" height="50" as="geometry" />
        </mxCell>
        <mxCell id="lOXssVLxFtPVB_tmpfgO-9" style="rounded=0;orthogonalLoop=1;jettySize=auto;html=1;entryX=1;entryY=0;entryDx=0;entryDy=0;endArrow=none;endFill=0;strokeWidth=2;" edge="1" parent="1" source="lOXssVLxFtPVB_tmpfgO-2" target="lOXssVLxFtPVB_tmpfgO-1">
          <mxGeometry relative="1" as="geometry" />
        </mxCell>
        <mxCell id="lOXssVLxFtPVB_tmpfgO-10" style="rounded=0;orthogonalLoop=1;jettySize=auto;html=1;exitX=1;exitY=1;exitDx=0;exitDy=0;endArrow=none;endFill=0;strokeWidth=2;" edge="1" parent="1" source="lOXssVLxFtPVB_tmpfgO-2" target="lOXssVLxFtPVB_tmpfgO-3">
          <mxGeometry relative="1" as="geometry" />
        </mxCell>
        <mxCell id="lOXssVLxFtPVB_tmpfgO-2" value="0" style="ellipse;whiteSpace=wrap;html=1;aspect=fixed;" vertex="1" parent="1">
          <mxGeometry x="230" y="130" width="50" height="50" as="geometry" />
        </mxCell>
        <mxCell id="lOXssVLxFtPVB_tmpfgO-3" value="3" style="ellipse;whiteSpace=wrap;html=1;aspect=fixed;" vertex="1" parent="1">
          <mxGeometry x="310" y="200" width="50" height="50" as="geometry" />
        </mxCell>
        <mxCell id="lOXssVLxFtPVB_tmpfgO-16" style="rounded=0;orthogonalLoop=1;jettySize=auto;html=1;exitX=0;exitY=1;exitDx=0;exitDy=0;endArrow=none;endFill=0;strokeWidth=2;" edge="1" parent="1" source="lOXssVLxFtPVB_tmpfgO-4" target="lOXssVLxFtPVB_tmpfgO-3">
          <mxGeometry relative="1" as="geometry" />
        </mxCell>
        <mxCell id="lOXssVLxFtPVB_tmpfgO-4" value="1" style="ellipse;whiteSpace=wrap;html=1;aspect=fixed;" vertex="1" parent="1">
          <mxGeometry x="380" y="130" width="50" height="50" as="geometry" />
        </mxCell>
        <mxCell id="lOXssVLxFtPVB_tmpfgO-14" style="rounded=0;orthogonalLoop=1;jettySize=auto;html=1;endArrow=none;endFill=0;strokeWidth=2;" edge="1" parent="1" source="lOXssVLxFtPVB_tmpfgO-5" target="lOXssVLxFtPVB_tmpfgO-7">
          <mxGeometry relative="1" as="geometry" />
        </mxCell>
        <mxCell id="lOXssVLxFtPVB_tmpfgO-17" style="rounded=0;orthogonalLoop=1;jettySize=auto;html=1;exitX=0;exitY=0;exitDx=0;exitDy=0;entryX=1;entryY=1;entryDx=0;entryDy=0;endArrow=none;endFill=0;strokeWidth=2;" edge="1" parent="1" source="lOXssVLxFtPVB_tmpfgO-5" target="lOXssVLxFtPVB_tmpfgO-3">
          <mxGeometry relative="1" as="geometry" />
        </mxCell>
        <mxCell id="lOXssVLxFtPVB_tmpfgO-5" value="6" style="ellipse;whiteSpace=wrap;html=1;aspect=fixed;" vertex="1" parent="1">
          <mxGeometry x="400" y="280" width="50" height="50" as="geometry" />
        </mxCell>
        <mxCell id="lOXssVLxFtPVB_tmpfgO-13" style="rounded=0;orthogonalLoop=1;jettySize=auto;html=1;endArrow=none;endFill=0;strokeWidth=2;" edge="1" parent="1" source="lOXssVLxFtPVB_tmpfgO-6" target="lOXssVLxFtPVB_tmpfgO-5">
          <mxGeometry relative="1" as="geometry" />
        </mxCell>
        <mxCell id="lOXssVLxFtPVB_tmpfgO-18" style="rounded=0;orthogonalLoop=1;jettySize=auto;html=1;exitX=1;exitY=0;exitDx=0;exitDy=0;endArrow=none;endFill=0;strokeWidth=2;" edge="1" parent="1" source="lOXssVLxFtPVB_tmpfgO-6" target="lOXssVLxFtPVB_tmpfgO-3">
          <mxGeometry relative="1" as="geometry" />
        </mxCell>
        <mxCell id="lOXssVLxFtPVB_tmpfgO-6" value="5" style="ellipse;whiteSpace=wrap;html=1;aspect=fixed;" vertex="1" parent="1">
          <mxGeometry x="220" y="280" width="50" height="50" as="geometry" />
        </mxCell>
        <mxCell id="lOXssVLxFtPVB_tmpfgO-15" style="rounded=0;orthogonalLoop=1;jettySize=auto;html=1;exitX=0;exitY=0;exitDx=0;exitDy=0;entryX=1;entryY=1;entryDx=0;entryDy=0;endArrow=none;endFill=0;strokeWidth=2;" edge="1" parent="1" source="lOXssVLxFtPVB_tmpfgO-7" target="lOXssVLxFtPVB_tmpfgO-4">
          <mxGeometry relative="1" as="geometry" />
        </mxCell>
        <mxCell id="lOXssVLxFtPVB_tmpfgO-7" value="4" style="ellipse;whiteSpace=wrap;html=1;aspect=fixed;" vertex="1" parent="1">
          <mxGeometry x="460" y="200" width="50" height="50" as="geometry" />
        </mxCell>
        <mxCell id="lOXssVLxFtPVB_tmpfgO-8" value="" style="shape=image;verticalLabelPosition=bottom;labelBackgroundColor=default;verticalAlign=top;aspect=fixed;imageAspect=0;image=data:image/png,iVBORw0KGgoAAAANSUhEUgAAAVkAAADjCAYAAAAv1Gd8AAAAAXNSR0IArs4c6QAAAARnQU1BAACxjwv8YQUAAAAJcEhZcwAAFxEAABcRAcom8z8AAKrdSURBVHhe7V0FWNNfG7W7u1ss7FbswMbu7sBusMVOxO5GsVDEFrswUMAObEVRwO7z3fMO/KOfAdtAxN95nt8jbmMb273nvnneSNCgQYMGDaEGjWQ1aNCgIRShkawGDRo0hCI0ktWgQYOGUIRGsho0aNAQitBIVoMGDRpCERrJatCgQUMoQiNZDRo0aAhFaCSrQYMGDaEIjWQ1aNCgIRShkawGDRo0hCI0ktWgQYOGUIRGsho0aNAQitBIVoMGDRpCERrJatCgQUMoQiNZDRo0aAhFaCSrQYMGDaEIjWT/ID59+oiXL1/g2bNnePzoMe7du4fbt29/vfj/R48eweeZD168eIGPHz8G/KYGDf/h8+fPsjZ4ffnyOeBWDeEFGsmGIb6o69WrV3j48CHc3d2xe/cuLF++DNOnT8fo0WNgbWWFwYMHY/CgQfKvlZU1Ro0ejWnTp2HpsmXYtWuX/N6DBw/w4uVL9YR8Rg3/Cj58+AD/F/7wfuKNu/fu4sqVKzh92hUHDriotbRbrkOHDuLs2TO4du0q7t+/px77BP7+/up3tQP6T0Ej2TDAF0WGfmqhX7x0CTt27sQsu9no06cvLOrURuHCBZExU0YkS5oMiRMn/r8radKkSJ8xAwoULIg6deqgT9++sJ01C9uctuHyJU9l4frL82uImOB3++7dO3Ww3sfJkyewafMmLFy8CJOmTsHgoUPQqXMnNGnSGHXr1kW9enXRvHlTdOvWBcOHW6nDexoWLV6sfmczTp5yFW/poyJqbb2ELTSSDWX4+fvhjLIslq9cgf4DBsC8WjXkyp0byZIlQ9QoURApUiTEjBETCRLER7LkyZE6TWqkTZdO/ZtGHhM/fnxEixFdHhclajS5LWeuXKhatQoGDeiHFSuWy/P7KbLVELHw/PkzsUo3bdqISZMmok2bNjAzM0PefPmQJWtWpEyVEvHVuomh1kfUqFHlihUrJhImTIA0ah1lz54N+fLnR9ny5dG2bTtMmTwFTlu34sKFC+pwVp6QhjCBRrKhhLdv3+Dq1auwX2cPy56WKFW6FJImS6rIMjJix46NVKlSIZvaKKVKlkSTxk3QUz1mqNVQjB49CmPH2WDUmNEYOmQoLHtYolHjxihZujSyZc8uvxcnTmxEiRIZyZMlQalSJWDZqyfWbXDA1evX8ObNm4B3oOFvhZ+fHzwvemLlqhXo2csSlSpVRObMmRWBxpLDNk6cOGotJUPatGmRMWNGuS9Llizq3yzIlCkzMmTIqEg2rTyGay1S5MiIEzsOsmbJiurm5uJFrV27DpcvX5FQgobQhUayoYCXr17i8OFDGDliBMqVK6cs1GSIETMGokaLhgwZM6N27ToYNHgQbGfOxDp7exw8cFBZF+dxXZHk3bt3cO/+fdxR/16/dh3n3c7D5cABRdbrYDvLFkPU71lY1JHNFE1ZLjFixEDyFClQvmJFjBg5AgcPHcQr9foa/j4wgeV12wsbNm5Q5NoLJdUBmiJlckWUsdShGkV5NQlQoEBB1K1XHz0sLTF61ChMmTIZ06ZNx4wZM+XizxMmTMLwkaPkMRZ1LJA7V24kTJAA0dT6i6NIN2nSZChRoiQGKM/K0XELHj68H/AONIQGNJI1Mh48fIB169cr96ytWBfi5iurM0+e3GjarCkmTJyE7dt34NKlS3j08KEuKfHxQ8Bv/xhMWvBxrDS4zLjujh2YOGkSmjRtijympoiiyJavw9dr3aYV1ivrmTE8DX8PeDAeO34MNuPGolLlSmKF8juNHiMaTPPmRZ26Fujbrx8WLlyIPXv24vz587h586Ykt5gIZTKVF3++c+curt+4CTf1mJ1qrcyZPRt9+/SRmL5JDhN5Xl70imrUqI7p06finNs5vHv/NuDdaDAmNJI1EmiFcMEvXLQQlatUQewAlz5tmjTKmqgDW9uZOHHyhGyEd+/eB/yWfuDvP1SEe/zkScycNUttHgukSZ0GUSJHEaunitqkC+fPx1212b581pIc4R3Pnz+H847t6NS5IzJnySQEGFu59/RWGjduDDtFkgeVZ3Tz1i157OdPnwJ+8/f48P49nj97pryk68ojcsHUaVNhUa8uMgWEHyJHjoxcuXKiT9/ecv9LVq1oMCo0kjUSvLxuYfbsWTArY6aLg6mNklst3kHKJdu1a6ci1wd4rxa8McHnu69Ie+fOXRjYfwBy58yp26Bq85iVKg3bGba4c/tOwKM1hEc8efoU69c7oGHDhpLU5PcXL158VKtWHZMnTcGRo0flYH77znArk/F6WroMKdETqqgO4xgxdXHeNGnTKi+oDZy2O8P/xYuA39BgDGgkawQwjjrbbhaKFy8qCzZG9OgoXaoUpiurwcPdXayJ0ATJlq8zfepUlC5dCjFjxpT3UaxIMcyeNVsaGzSEPzx+8hhr1q5B9eo1lFWpO5izmeRAt+494Oi4FffuhV7I5+7du3DY4IC27dopi1lnPSdImFBCUI5bt4r1q8E40EjWQDx+/BgLF8yHmSK3yJEjKYKLAfOqVbFyxQqxGsISjMOypMvcvKokxJgsKVmiJObOmYdHDx9p9ZHhCD4+z7B23VpUr1kd0dWhzKSUad58GDXWBufOn8e7UD6YiddvXuPUqVOwshqKHDlySAkYy79oVW/b6ohXmkVrFGgkawD8/HyVxeGoLJFqX61H1q+uXr0K3op8/wQeP36IlSuXo3LlCgFWdQxUrWKODes3SPuuhj8PX18/bHXchvr16yNevHjyPRUqVEi58JNx+coVfApBzNVQsIvM3f0Cxo4dA1NTU3kvSRInRqtWLbF3716tJNAI0EhWT3z4+BHHT5xAh44dpZGAGf7iJUpgyZLFePLEO+BRfwaPHj3E4sULULJUcUSNFhXx48VHm1atcezIEU3/4A/jw/sP6ns4hnZt2iFRokRCavny5cOkyZNx7fr1gEeFPS5fvoRxY8cil7Jo+Z5SpEiJHj0scc7tvNaSayA0ktUTt+/cxQRlebBBgIsyTx5TtVGm4NatWwGP+LNgveX0GdOQN6/OOsmWLSsmTpgg8VktbPBnwAqU61evYezIMcicURcHza7Wj42NjegQfP6D3wut5yuXLmHk8OHImCGDVB3kyJETkydPU2tai+kbAo1k9QDLXBy3bkO16jUknsZmA0tLnvpuspHCA0ikHp4e6NWrJ1KwGSJGdJibV8OmzVvg56d1+fwJPHv+HCtXrIRZaTMpt0uRIoWyFnvg/PkL4WLdfFHvgfoIHTp2kO5EvscKFSph08bNeP36dcCjNIQUGsmGECQvNhL069cfqVKyxTUOatasia1bt4rCVnjCm7dvsd1pO2rVqoVYsePIpu7dpy/c3T3CzWHwr4Cxz5OnTqFd+/aIGy+elPnVq1cPu3bvNrhu2pigypfjVkdUq1ED0aJFR+JEidG3Vx9c9LyIz5+0NaMPNJINIV6pE33zli0wMysjLpVJdhNMnjRZSmLCI+7ff4CJk6cii3qffL9mZcpI6Q43k4awA2td582bhwIFC0iYIHfu3Jg9ZzZ8noe/ZOTde/cwfuJECYWx6qFUiVJYuWwFnvs8D3iEhpBAI9kQgpoC4yaMQ7p06WQBWtS1gMt+lzDNCIcEn5T1sc/lICzqN0SMmDHV+06L0WNG4cbNGwGP0BAWOH3mNDp36SzJroQJEqK9smhdT7sG3Bu+8FGtZeplNGnSBPHixUWihInQtXMXXPL0DHiEhpBAI9kQ4POXz3Bx2Y9GjRtK6U26dOkxfPhw6SEPz7jldRtjbcYjY+bMiBs3Dho1aoA9e/ZoWeMwwouXL7By1UqUKFFcvImCBQtiyZIlePr0acAjwh9Yc207cwZy5dRVG5QsWRJbtzri/ft3AY/QEFxoJBsCUF1r1ixbZMmSSTZLGbMyWLNmDXx9fQMeYThoEX/48N6oljHbJDdt2oRyFcrJ+86ZM7f6O+zUJvcJeISG0IJk7a9cQb9+/USEnQ0iTZs2xYkTJ8Kt90NwNNLBgy6wqFNLNDgypE+P8RPG484drU07pNBINgS4r073Xr16IVo0nThyt65d4X7hgiQ1DMWnz5/l+U+ePI69e3fj1KkTeHD/vlGSDR/VhnFzc0Pnrp0RO04cZc3GR+/efXHjxk2tnCuU8e7dW7js3y/ylOyootbrxImT8OjRn2lWCQlu3LiOQYMHIEWK5GrNxFWHQzMcPnwk4F4NwYVGssEEs/EkKlohdJ8omDx92nS8MILo8du373D+wnmsXrsaM2dOx5Qpk2CnLObVq1bD7Zybut9wcZBHjx9jytSpor7EWHLLli1x4YK7VmUQyvDzfQ77tWuUu11cKgqqVKmq3G4n5XYbdjDze9N5PR9EBpMCRZcvX5YE7GsjdWlRvGbxkkUoXKSwlHMVKlgYa1av1dZMCKGRbDDBOsGdO3eqTVJFXL68efNj5cpVasEZ5vKxbfHUSVcMGTIELVu1wKRJk7DeYT0mT54ilsOAAQOVdXtKvb5hG4dEvdbeHsWKFxd9BZYP0WU1hhWu4ee4f+8Opk2ZjOzZsiBBggRo3boNTqjv0xAPguRKYr1z+7Y6+M+LyPeokSMwZPBArFmzCneMVOlC4aFDhw+jfoP6Emai/uxktT45OVlD8KGRbDDh4+ODZcuWoUjRoqLDWa5cBWzevMXgU/3atWuicJ8rZ06ULVtWJiDcvnMHq1avRqnSpaXrZvjwETKE0RBwY3KIo3m16lKnWaFCBWzdtk3TDw1leFy4gL69eiFJokRImiQJ+vbti4sXLxpEsjyYOdrIQR3G1tZDUa26OUyyZ1OWZgGMGDFcYsDGwk0vL1j27IlYMWMhXty46tDvH27LFcMrNJINJh48fIgp06fDRJEhKwssLOpi9549BpEsN9r27U4oX7YMYsaIgdq1a4sqEp/T5cB+1KxdUyTwSiuy3bx5s0GJEv7u/v37lVXSAPHix0eePHlgN9tOdA40hA7YJnvo4GE0adgE0aNFQ/p06WAzdow6RA1rU3356pVMRpg7dzZq1qyOBAnji6XJFt2RI0eKQLex4PP8OUaNGo0k6oCgTnHnzp3h6empxfJDAI1kgwlal8OVxZk2Q3qpdWzVshWOHD1i0GKjFWlnNwupU6eSOG/zZs1wTVkoxPGTx2WAIm9Pkzo17GbNMshNI8kePnRQXoMTcOn6DRkyWCwiDaEDight3+6MShUqI7L6HqkjMX/+HDx9+iTgESGEWmpcbxSZefLkCdzczilL1kpGynOdcKDi6NGjceOG8WqgGaaaOXMmMmXMhLhx4ki44+zZswYd+P8aNJINJm4pt2mQ1RCkVISYNGlSdOzYSaxOfUmWv3fb6xaGDhnyVe6uTevWuHntmtx/9PgxmQnG2xMrUh8xfDjuGlA+w01x9MhBdTi0EJKNFzceOnfqLMk8DaGDd+/eSelc8WKsj40Es7JmoiH74qWeyVKS7HfjhJyctqNipUoitckZb2PGjDEqyb5/9x6LFy1GXtO8SBA/gSRMXV1PywGiIXj4B0j2i3K/P+Ljx/d4rxbGh09fFMEF3BUC3FKEOEhZfiRZjgnppAjq1ClXvUmWkoOnXV3RsUMHccMCSfZGgGV59PhRNGneFJFlSmk8dO3aWVkQp/W2IPh7R44cQqtWOpKNHSs22rdtL1aJhtABSXb9+vXSfMDvsbJ5FWxy3Gy07D+xfft2ScYyTxAaJPvxw0cRtSlSqAgSJ0yE5s2bSyL2vZYwDTYiMMkqMnpzA3dvHFALcTps5w1G77lrYHfwAbxfhjyOSkt2iHLNUqVJgyTJkqJ9x46y2PQlWW7A3bt3oX79el8Fv9u2aYPrAUmLI8eOKZJthmjRYyBOnNjqcRbYtctZfk8fkGQ5prxFEEu2izoozp/XLNnQAmtk162zR4EC+aQipVr1anDctlWEe4wBxu4pTFS5cuXQI1llDKxatQrFihQVkm3WrJkodb3/EH5EbcI7Ih7JflZfvv9teF86hOPr52La0HZoWD0DsuSOhkil2qD0tAu48jTk1iDLYkaqBZw+Y0YkTJwILVq1xOEj+sdkudE2O26BeY1qMiqGJNuubVtcDwgX6Ei2OaLHiCn3c9KBg4O93kpfJNmDBw+hWVNdTDZ1qlQYOnQwrl3TYrKhBZIsKwAKFy4kianKlSpi46YNePXaOGptJFlO5qgUiuEClvixqqZggQJImDChsmSbKQ/upHQlaggeIh7JfngKXFyGfXMGo51FR1TMmAt54kZCpCjqytsOJaedx1WfkJPsw4ePMG3GDJmFxO6X2hZ1sGvPbr2rC0iyGzZvQpVqVUWTlpuwXbt2XzPDR48dRdPmTREjZgwh2YoVy8Hefo3+JKsskv37XdCwQQPEjxcPefLkDqgueBTwCA3GButMt2xxRKlSZdQhGhnFixXDiuXLpEHBGAgLkmV99dy586SUkGGrVq1a4fTp08rC1cIFwUXEI9mP/srs3INz21di+qRFmNimIdrkSYyoUWIhUp4uqGTnjuvPQ06yz575yJDCokWLyIIuW76cSB7qa8m+VW7/lq2OqF5TJ/wtJEtL9mqgJasj2egxoosrWL1GdbVht+g9c4mz+nft2oUaNWrIIVGuQnnlujpqdbKhCHoPu3fvQfXqNYVks2bNjunTZshQS2MgLEiW64ONMWnSpJWONRoCLB/TNzfwLyJixmS/fBaV90+fXuDzpUVY3yMPEiaIh0jZ26PiLP1I9rVy8Xbt2iGDEqXjK19erFy5Uu/FRjds3759UqYVNCYbmPg6clwXk2W/O6sPWioLgt03+s7ookWybt06lChRAjEVaVvUqysVDFpsLTTxBSdPnkSbtm3UdxwLyZKlgpXVcEWCxlFtCwuS5TTmIUOHIn6CBHLYd+/eXRpo9DUu/kVE4MQXoQjwwWpsG5AfiRMpks2mP8myfZZJoqZNmwghUrtgxvQZeKGnJcgNwvKprt26iYUQSLI3A8MFJFmWcCkLl3W5AwYMkE4efRf348ePMG3qNGTJnAVRo0VD8xYt4EaLxMC2YA2/xhV1aA61GoqUKVOp7zExenS3xAX3C0YhqdAmWRoQ7u7uaN+hA6Ipb4ttwdZWVrKWNAQfEZtkvygCvLIYDj1NkSihYZYscf/BA/Tq3UsmwAae6h4eHnrXDNJKGK02BRcvSbZN61a4FUCyx0+dlMQXb0+SJDEmThivdxE7QwUXzp9D965dED9uXMSNGw+9evXG9es3NIsklEFhnjlz5yKPaR7xSJooz+XQoYNGcbe/J9msimTHGpFkGSrYtm0bqppXVYd9JGTKmFGaZ7Qx4SGDRrIhAK3WmbYzkUEtNsZQRWvA3h6+z/VLZDBkwJADk2kk0wb168EjoKTqyLHjsKhfX27PYZIdS5csxts3+g2ze/nCH1sdN6FqpfKIFjUKcubICduZtmErGv3pLd6+eA6fJ95yuMjl44tnr97jXQQWdeKaIRFWqFhBiLB4USa/VhhFvY0IWiebLWtWjB83TiYSGwP379/H1KlTkTNnDkSPHg3lK5SD49atAfdqCC40kg0BqPm6d+9eUbDiAMUM6dNh9MiR8DJgDLirqytatWqtXMmEirTNsHv3Drx5+wbOzjtQrlx5JEmaVLpsjrBcTL2+PrhzxwsTJ45XmzCz1NzWq1sPu3buDDsFrvf34Xt+E7bYDUa3dk3RoEEDdTVGg+6j0XuhC3Z6+uFVBE1W8zNmXLZlq5ZCshzlQgHvwASnodi5YyfMq5rr6mSzZsGEiRNknpgxcMHDHZ06d1YWeFzxpnpYdpcQk4aQQSPZEILK8ONsdDO+OGab1ueBA/rP+PLxeQYHhw2KuOtKUm3GzOlwUc83y9YO1apWQ/36DbBuvQO8vb0DfiNk4MFw4MABNGzYQDZiOnUwjBw54ms9bujiMz6+vAavdROxsJMZymaKIpb5f1dqRC/aAg0HzMK6E3dxLwISLcMx9+7exThlYWbIkEH+bjYP7Nq1U+/GEoanKHV46+Yt0TTOnSu3PG/suHHQpl1bHDx4EM+Vd8USMn3DQVL9oizwMspb43ObmJhg/oL5okanIWTQSDaEoK7spo0bRRmLoh/ZlSs/ZcoU3Lt3P+ARIQM3gbf3Y2xwWI/hw6wxQhHgxEkTMWbMWAy3Ho519uvw4OEjib/pg/sPHmLK1GnIni2bJNHMypRWpL0O/n5+AY8IRXx5gAdn7DClXH4UU5Z6grixED1aFLCPn5+dEG3U2IidLD3K9VmG+ec/wedTxIsRv1eExdgmy/BY85xNfRcTJ00S0SF9wBAEhX02b9yEDu07IGOGjPK8sePGRtnyZTFr1ix4uHvC19dPr3XDNcnnHzZsGNKmSyvfU1Vzc+x3cdF7Hf7L0Eg2hOACpB5onz59kCJFCuUCxkLNmrXgtG073hggrO3j8xSnlFtJAly8eDE2KiJ3PeUqakv6gmVb252dUbNWLXFVkyZPhl59esFduYFhslkebMaB2XVRLFNppC7YHW2tZ2HGnLmYO3cqZg9phR5FEiBXANlGz9QEtYYcwn7vV9Av8hy+cfnKZakySJc2rXwX1atXx86du/TygEiyVy5fgeMWR9iMtUGXLl2kfrV1m9boP6AfVq5YAfcLHsqa9dXre3718hU2qkO/YoXyUqdNr42E6+XlFfAIDSGBRrJ6gJKDjo5bUK2aOWJEj47kyVKgV8/eUqStr3tGsAaWyQaWaj148MAgIuT7YPkNqyGSKXKlpcMs8cZNG+EX6lbsJ3zBMzzYNh52HeqiYntbdF9+G55fX1Z9Rg+O4dK81rAulwbplIUdKVIWZCxmg+lu3ngQ8KiIBF8/X2xmh1/lylJnnTxZcgweNATXr4Vc+5VhhifeT3D1ylUR+GFcnxdV4U6fdsXlS5fw+NFjqQII6XqkyteF8xfQy7IHkiZJJI0yFhYWorOhb7fhvw6NZPUAF+7t214YN84GWbNmkUqD/PnyYcbMmbh3717Ao/QDiZXJEkMtzXv37spk3Xz58sr74/scN94GXup9G3IQBA+++PThGLZMngrrlrOwfM9VXFME++1f9A6fnx3G8Xnt0CpRHMSPFBMp8vXE4P33YDxd//ADfp83b9wQyUrGZtlkUrRIESxcsAA+Iazy4PfHA5lky4uxV64ZXvyZF+/XZw3xcJ9tNxsFCuQXDyNzpswyEunhwwdhsG4iJjSS1RMUyDh69Cg6deqI5MmTy2SDsuXKY8WKVXj69FnAo/4MvNWmXa5cxnLlyokFm0y9P7qTrFD4EBY95x9u4cPjFVg+xx5jp1zH9Sc/2+yv8fjYFEzMnwgZ1IZOZtoRPbfdwYWAeyMaGJvdv38fmjRpLNUpTJxyGgbLsMKDlejn7w8H5elUDtDT4Jiili1byTo3dJbdvwyNZA0Ai7UpNWderRqiRYuuNk1M1KxZG/b26/HUgFiqIfBWr7tm3TpUr1VLCJYWk3k1c9FZCP0wQQDeeeHTvS04esoNTm7A05/yxwd4n7TF3OpJkS1KLCQvNhDD9j+AcZpOwyfYULJ8+TKUKVNGqj2SJ0+hDsD2cHFxMcpUYn3BOO/OXbvQpGVzxEuUQA4BrutNmzeH3bqJoNBI1kBcunQZlpY9kSxZcnGv4sWLj5rVa2DNqpV4ZKR6xeCC9ZErV60SguUcL76fRGrD9OzVEzduGq+f/bf4/Bpf3jyG38tXeKZ44+NPvdb38D42DXNqp0DmJHmQrdkyrLrkh4jcT0SXm512EydOgqmpqXxHqVOnRteuXUWK8s2bsCdaVszQwm7fvj0SJ00i3V2FChfGrNmz5dDWYBg0kjUAz549w4YNG5XLZ4H48XWtsbyiRYmCCspVnz1rliLhS6HehkjZxIseF2E7cxbKlS8vfeaB7yV27FioW9dCuaRO8PX1DfiN8ADG9x7h+qa+GFwoIUzyt0LduVdwzi/iS+iRaF32H1DfS11EkaSfTguDI42o2sUa17ACq1dYXtauXRukSK4zFKIrr6xW7TpY5+CAh48fi8emb02vhn+BZK8uwYZeeXUka9IBFe08cMMIJEvC2rBhg2wUihlTDyBr1qzImDGjlOgw2VSgQAEpfdm7b5+0kRq7w4rP5/3EG/v274fVUGvkNc0vr8swAUW506dPL+IziRMnRqNGDUUq0d8/vLh+6rPwdcKOURVQOW16lGphh9nuX6CH1O9fB7Yz269dC/OqVSWWH3ggMrbfomUrOKiD++69e0ZfL0HB5NjNW7ewYsUK6WDkNFqGlqKr95MyRUrpNuzbvz/mzp+PjZs2yaRjd/cLIg5Do4G/r8Vpg4eITbJ4BVxbio298ym3WZFsjo6oNNsTN30Ny9z7KAt2vTrl69Sp81XcpVSpUhgxYhTGjRuPatWqSbyNt2fKnFnkDG1n2+HY8eMikm1o5cDnT59llPfx40cxZ44dmjZtKtNE+XqxYsUUwRCqJQ0cOBBFihaV26nkxa6vzVs24dnzP5uYE3zwg8++rhhVLzXS5GqCFrancFF5yhF929Jy5NyvBg3qKzJLIdq+GTNkEJKT70kdiFXV+pk8dSqOHjsG/xfG0TgIisePveFy4ICIE3HdBg7yzJU7Nyop4i9WogSyZcuOLMpoMM2bF2ZmpWVMUp8+vUTonVoMhw4dwsWLHnji7W0UsZuIjAhOsgo3FmJDj6xIFD8OIqVri4ozLsLLgDXxzOepbBJmhQMtVo4X4djkS5euwMvrttzPWVoyqjlyJJEWNM2XF23atIGtra3oH1y5clnKZVgw/qtwAp1qhgNoOfPxVy5fwr69ezDLdqZ6vlZSokXLle+DVnSLFs2xZs1q9bjLUrc7ceJE5FUbhZsobtw4qN+gHjZu3viHQwfKCnpyFs6WVdGoYDGUH7oRS8/50raN0PB++kR9N2ukESGmOgxZL1uqdGmRsezVsxeKFikqa4qdeTkU4VGHdunyZThz7hzu3r2LV8pt1xes7aZwzPFjx9XBPBfNm7dApky6g5neTunSZpg4ZQqWLFuGjl26IE1aXadX4MXDO23aNChQsIC0BTdWhkNfRbrz5s7BQUXYrO+mdWt8vAP8zuPa0dXYtHyOeu/zMW/BethvccfZGx/x9i/g9whIsoqWvrzH+9f+8H1wDXc398XYmnEQQ5FdpOiVkK/zWmzxvAsfv1d48e4zQtLF6asswA3r18FCEWyC+PEDCLYIpk2bJvJytFBZSsiY2n6X/bAeZo0SJUvKTC1uHiajcqvNQ/ds0KCB0v64fr2DtCt6eHrgwcMHksllOQ//Jam6e3iI1eGgLGe7WXbq9wYoq6IucufKJRYIn5fWNF9nqLJeKQTO19eJln/CpYuXpCvINI+pxP8SJkqoiLY+HLduwcuXLwL+sjDGJ0882jcJg0q3Rr1q07H00hPcj+ATpr19nmDtenvUDJiEQde8SLFimKEOXU9PT1zyvIg5s+cIAXMaMg/OOOpQLFCoINp17CBqWLucnUVzggperEQIWg/73/VJbuN9fMwL/xe4duUatm3bikmTJqJlixbIlzefrEm+j+TJk4nBsGTpUtxVROl1+46s51xqfQUlWV5RokQWQuZ64+8nSZIIhQrmR1dFyozrGjeWzI35AR/eXcFj1+lYZl0O9UpmRdasGZEpQz7kKtwTHcYewYFLb/GBW173S+ESEZBklc/58hROr7XB0Po1ULtwGmThjC9ZKMqFT14AhavUQvMRS2F39DkeBLOHk3KGGxXR1bWoIzOy+HyMuU6ePFn6vL8v1GbGlptn+fLl0vZYTG0o1h3y96IpyzZVqlSSXS5fvgIaN2mCnr16YdTokZgyeZKIgfN5R44cCctePdGkaRNUqFBBZt+nTpVSZOf4PCTZosWLorN6/qXqdUjI39dbfvr4CR7uHhgzeozaXDqLlkTbqFED6Vp7bqR5U8HHFzw/Z4ftfYqhucUo9FnghZuGRU/CPRgiWGO/BuY1q0t4gN9B0aJFMXX6dNy4efMrQdy9c0faqXurtVCIY8TV4/jY+AkTiDylRa1aGNi/P6YrElyyaDE2btgAF3WYnzl7BhfUd3/B3R2urqewf/9e0cJYtGihPLZ/3/4ydoiShXHjKI9OPWfMmDFQqmQJ9O/fD05OW0X3lmCSi1KMXK98XNCLo+tpJJQpU1aRcG7pdoyu1jL/ljlz5uCxtzErEdQ6fnUS586sxcLV8zBv+TQsnj1ReWaWGNCmGIrlSI/UeWuh2YS92H9fve9wvIYiIMkq19v/MI4s7IfOZUrJEDuzchVRsVIlVKpYDuV5W4kSqGg5EzZ7fXA3GB4YT2iKwljUqYNYMWOJm/crgg0KWqTnlLu3aPFiIcOSyuJkgkysFbXQuXijRo32NUGVImUKRaSpRReB/2d1QFSKqigrgi5msqRJRZyZsbRuXbtg8ZLFapOdVWT5c/efFq2nhyfG2YxVRG2qLPBIujHjyqLdoog27JJhX/Dh7lHsmtIavRpURb85u+H0SI7FCAuqp61dvRrVqpsjsrJeGTriCCCGl34krk2SY5hn/vz54GRheiAp1ZqIElWnYBZPkTS1BPKq29lswsaGrt27oU+/fujTty86d+6Ehg3ro1xZM+TJnUu0EpiUlYSoWm+p06RG3vwMXbXCsqVLlCHg8U3lwMsXL7HdaTtq12I47L+kHC8aF1UqV4G19TDY2IxDhw4dUEsRP9f15i1b4OtnrPixsmBf3YbP2VXYvn4J7JzO44h3YFzgCV5eX4yFA/KiYNooSFa5P7pt98WtV+GXZSMgyaoP+5M//B974YaHO9w9L+HilesyBfb69Su4etkTnu4X4HnzAe75fsS738R0KCm3adMm6d8OTHIVyJ9fCJazjoIT9Kf7xnpDjpth0sB25gxYWnZHlaqVQXUsaozSIiB5040MvPj/6NGiitZs9hzZUdW8Cnp0744ZyjrZqhY1x+GwuD04kxn4HjzU5zFm9ChlQeuk8aTqQG1SJ6dtygIO/dDBB+9bcF84GNZdO6PxBGc4eLyE/lHG8A9WEXCuWo3q1RFLHZaMtRYsUkQsWGb2f5YA5Xf11McHJ0+ewrJlSxWB9kHZcmWRXB3MDPno1kU0Sa4yoZkydWqkS59eyJeEnCBBfImh0mPiY3WeU2pUqFQRgwYPxsrVq8T65fv7fv3yPV047y4xYtbvkpy5Fhm+iBkjpljDlpaWMoWXegnHjx8X/QTGZPm+jYMX8Pf2xNnN23HK6QTuP32DV9/YMU9wa+dQjKmUEGmK1EWJaRdw5nH4jTdF/MSXAWByyFGRGUWmA928vHlNZRQMLVh9wDgZ+8DPnTuLrVsdMXfOXBkZMmTwIHHd+iprhBeFnfsr15C324wdg7nz5mLrtq04pxb0A7Wg3+pRe/vpkyJadcCMGTNK3D7+PQnVJm3SuBG2bVUWrV/oJcM+3jyNM8vGw7r3QHSc5IQVF97jfgQuvZQQwZo1MDfXCWrzsy5WrPjXEEFwwUoQzgRjGIESmL169kSjRo1gZmYGU7UWs5lkR1Z1UGfLrq5sWQN+zg7TfPkCLN2m6N27j0yc3ay8Fs+LnvD7jefi/eQppkyZChOTHKAKl0kOE5RWr5c2bTo5LPIrI2OUOqwvXQ4tlYm3ePPiMbzOK2v21o/f66uz87GuYVLkL1UTxad54vSj8JsB00j2J9ApbTmioSJYxj55mjOGyvEeVDni3CxDwZOfMVQqND1Xm4lyh7QueFEcmWPIeXtgMswYloIuRuuO0aNHKqskp7J0IisXNA4aKRdz+/Zt4q4aF8oEef0AV9ZNg21vS3SbdQArf3Y+vX6JJze88eTRC+aU/1qQYNfZ20sSK9CSZIxzxowZuK7n/C3WzLKci8I/x48dw9q1azFrtp0Q77jx42Azbqxc48aPx0TlZdnNni1VLrSGqXXs7/8iWF4XwWoWal8ULlJU2msrVq4I6+HWMqEjUNwmZ65cGGszDlev38BHI+yFkOEl7h+biSlNS6JhO2uM3O0Drz+Uww0ONJL9AQIJlhYs3TFaIaameTF+/ATR8TSeW/RnwA174cJ5DB8+DDmUlcK/j+NFmjVvCmdnipUYkWhf3sLzvaMxZ2AXdBiwGuuPP4fPD0PY93Fn324sHLAO6+0vgPNQfx7pDr949kxX4lerVp2v3k+hQoWkOuCmsmB/FiIICVg5QC+L8V5WoNBVp/rbvfv3ZNjnw0eP8OTpE7WO/fVaq1wf1CE2r1ZdDIySJUvIAEVWuPTo0UM6w3h45MmTB8NHjsT5C2Ep6aNWxYeTOLHDFh17z8KkZadw1/fTb8N+fxIayX6HZ8+fYyst2IYNv24SlrPY2NiIzmtEAa0aEu2IEcO/DnJk1UGzZk0l22yUOtrXN/B4z1jMbGMCs0L5kbtKXwwcPg3zZk3DtGlThXh01xRMndAXvdt0Qo268zF9zQ2wXeJvI1l6IuvX20smP1YsXRafmXdOzmBO4G8B18apU65o266dJGSTJUsKS8secHM7J/PKunXpIolZ/n0MTQy1tlJEe94oB8iv8RQfH7ng+BJrjO9ng95zL8LVMGXRMIFGskHgq9xyqg41qF9f6gDpFuXOnUcIlhoEwXW3/hbQymHoYOSIETDJboKoUaJK0oQtuKx71Nui/fgG75/fxr3twzGtWVqki/NtKdBPr9TFUHTYPqy78vmvI1iGeBw2sEmlloQHeBVhkksdIkyQBhuf3uPz62fwe/IId2974+HTV3ijPoxgfx6f3uDTKx88feitrNvnePbqA0Jqy7JahrPsxo8fj3Tp0ss+YBfh6dOn5f7jR46gA8VkEieWxBhjwdZWQ6UqwvitwJ/w+YMvnt85g5uudtg8vQGa5siDYpkao/f4Ldh3wxeUuwjP60Uj2QAw7rlpyxbUb9AQCQOqCPLly4dx4yaI0haTRhERHz98FCX8EcNHIFdOXQF64sSJpFXXabuTfuVdvpdxf9sQjGmYHulj/4BMf3alsUBz+6s48ZcFZJ/5UChoAyws6iBefF0tdMGCuhI/WrDBtvAUwb64dgRXt0/GouH90KTOGPSbeQRn3n8OVoz6k/8jPDntgBOrh8OqXV80aj4fc1xugtPnQkpCLOvasWuX7AfOJON6YHUMwaTr/n37pIMxsB2YY+sHDx6Mc2fPyWOMhxd49XgntvRrig5FM8I0Q0zEUq8XNVJKZM9bGjWHr8TsU6/xNByvGY1kFZjBZb1oQ2XBsaaQi4YWLCeMXr6sXxXB3wRqIbhfcBfVfmaU+fcnSJgQTZszdLBNDqAQwe86Hu4eh+mDmqFuo+Zo3qIVWrX63dUdfUfZw/GKH/Sby/tn8MzHBxsdNqBO7dpSrM/PjhYspwkEO7z05RM+PjiHG3tnYNmYWuhWJwsKpEmtnqsSirRZh+1vP/167tnb53h1ZReOrx2ACZYl0cgsLZJHzYJIsbugyyo3XFYP0cfSu3P3LlavWYuxY8dizeo1knQLBJtt9u3di/Zt234NHWTJkgVDBg/BebcLRsxbvMTrJ/uxY2Qv9K1ugbrlKqFqnvTIFOgdZWqASsNO4uijt+E2WfrPkyzV4Ddv2SyF+QkTJpCAfr58BQIs2IgXIvgZJBmmLNqRI0chlzpg+DkkTpIYTZs1EeX+lyFR7v/8QXmtvvB//hRPlJXHODcbOn59+cH/hdoon778NaECEuymjRtQz6KutDfzM2OSizHY3zWpfAP1eb07sxQHp5RHlyZpkNMkDuJHJ2FXQcXuW7BLWbK/LNjzvQnvbQOxZGBuVK+UDGmTR0OMSKkQO4kl+jl4gmaCPp/pu3fvRUyGugmU9fz43VSNN4poD+zfL1M3aNEydJA1S1ZYDbWS0IFx9s5ndQa9xRtftY4eeMP75Am42Q7GMPNMSBmDRGuCLKWnYY6bN3Q9a+EP/zTJ0kJz3LoNjRo1FrlCnoymprRgdSGC0A/khy+wqYGbY5iyaHPm1FUdkGibNWsm2WZ2A2nQgeO2OZSyTh3qWOjCS/nz5cfkSZOlkyvYBEsoS/bTAzfcPr4SO7bNw/SBlVE/Z3QkiVoe5btvxa53vyFZWrJX98Bt/0LYLxsJq8aZUCRRAiRJ1RO9118EI8KhdXC9VocvBY/aKouWXYz8HJhItbKykvBCqLzu/cvwtB8GK/N4yB45OpJm744BO2+LxR4e8c+SbGCjQaPGTcBpBlwcuXLlkMJ/EmyINkkEAmeAcXMMH24NkxzZ5XNhpxuJdofzDqm3/NfBKgI2B9SxqAPO6aIFW6RQYUyeOEnvJpWgeH3YCrNrxEKmGKVRstNW7Hz7G5INije3cW1uGbTOGAvJU/dAt7WhS7KEhA726SYrcJ4c1wxbx0m0LO8yfjJM4elxXJxWAnXSxEKibC3Rwf46zgbcFd4QYUmWJPkznnyhTl/HbbRgG30N3LMDii2nnh4e/0yI4GfgkMhzbudERSxHTl2MllZKyxatsHPnLilW/1fB5hCGCJjkYnkTXWTRsVAEy/Hexlg7/geGwLZ6LGQkyXYOIcm+vIHLs83QMoOOZLuHAckSL1+8wJ49e9CqdWvpIuTBQ4t2uPKKOJre6PhwFe92WKJDkdxIaNIOXdZfDbcDOCMcyb5/9xaXLl4UjUtmOrkpgoJaBHR9myrLLDBEkDNnLowZM1ZUs4zRyRURQIuWwja0Rphd5ueUNElSmV66a/duvA7lkTrhERThoRavhUVtUJuXnwkJlpq91xTBGgdf4L17AKZWjYUMMcxQKoQk+8nHE24zSqFZ+thhSrIEuwW5NtgZljTAeGGNeSDRGtc79AJOjEHnWhZIbDYGNi53EbLB6mGHCEeyd257ibxbK/VFs/7T0+O/U5SdXEzi0PUlwepq/LJj5MjRuHjxEj5/Doul+PeAbh7FP4ZaDf1KtPzcWqjPdvfePXgRRI/246ePePzksdRSUhja69atPzIUUF+wi4rJHbYzU0T906dv4/E+z3wUwW5G3Xp1EStWDKmDZZIrRFUEwcLfS7IEE6R7FNEyRps0aVJZMyYmJhih9qKH8hK/T579GC/x5ukNXDt3GmfPeODaA388/6ZY4RV8r23H6YUd0bBtX5QZsR87vYw/QcJYiFAkS1JgbKhmzZrSDlu5UgUcPnTw633OyoIlwQZ++Tly5FRf/kg5ZT9+1CzYH4HkI6EDa2XRZtcRLUMHzVu0wI6dO5TnoCucecWJpy4u6NajBxo2bAS7WbN+KOUXHsGa0MuXL4ti1urVa5QF76YO5P+SfKx+2KQsWA6kDBzVQguWBMs6WOOGl/5ukiVo0XLuHEMHbOqhMcNw3MhRI6X55fe4irv7J2BknTKoWsoCHcY7YKXrc9yTwQtf8PGeK3bMG4RuLWqhwcj5mHnhBe6/D79J6ghFsuzXnjt37leri5qabANkDJGD4FooYgjUImC8iOVK7u4e/1wVQUhBK5WqYYOHDBYtW35+iRIlRmu1iSga/fr1K7x99xbr1q+XmWJx4sYVi+/AgQMBzxC+wblrK5Yvl6GYPKCp5crx6gT7/x0dN8s0ikDBa6pQsRvKGEmu/8ffT7IEw0m7du0SoyZJ4sTyueXOo4h2+HB4XLggkzt+jvu4u284BuSKhCTq9yKlKgTTGh3R0nIw+va3xTDruRg4cCoGDpuLlQfdcVP9ceF5B0coknX3cEfffn2lOJonKEWFObyQQ99ICHR1o0SJKhYZpw5c9Lz4FyS5PuLzez88u38bt65dkxbNn17Kbb1+/S4e+L7FayPvKibDzp49g8GDBslsKIqIM+7Wrl1bOcCePH2KnTt3omrVKrKh8pjmxqpVK/+KKo0zZ87I9AoewOnSpcWYMaNFcIWylDt2bJcpEhQ5Z3uprgtwHC5evBjw28ZGxCBZgskwrgmG7jggkuvCRBlAI6ythWg//rTq4Ate3t2PndY10LZgVmTPll3tWROYmBRAjtzNYNZoAUYsvAy3ix/UcwT8SjhGhCJZhgpYVsOsL2X8mLRZsGCBKLcHdqWw0H7UqFESH/o7qggewt9zNRb1aoH65cuj/M+uChVQoZw5ajcagcm7bsBT/WnG3ljv379ThHRaWbSD1KLXWbQUiW6vDjOOPT954iS6du0qY0mSJ0suCSHjSycaF+xM4sjr0mXK6A4HZW3RkmXv/qGDB9G8+X8JUkpdkmBpwYaeElvEIVmCeZDdu3dLeClwbBPn0w0fNkxqsn9WAvT5gx98b5yGx+G92LPTGc7bHOG4ZRs2bzmEHYdv4uLdD3j/l3S6hwnJ8mNkLR0HET588AA3r9+QCgASHTP6ly9fwS0vLzx67C0dWO/1qKujxUSJuSJFi0j5SJ7cudGubTtY1K6jiCClKLsXLlwUM2baykz7vwYvT+D66kaolSqgjfCXVzJEyd8XI5xu4VookCzBQX3nL7jBethQZA+I0SZNlgzdu/fA6tWr0bt3LyRPmlQ8iZ6WljL4T7+KjS/K5XwtySjK+d28eQMXL3HNuEuZHaf93lZrxtv7segrvFMHgD5g3e/UadOQPmNGxIwVCw0aNsS69Q4idclOpsBpGAwRUCiIsdvQRcQiWYJ7n6GDls2bI3lAHW0OExMZW3/BzQ2fQu3ACh8INZJlFpEf7pMnT+HmdkFq6Navs8ec2XYYO2o0Bg8ciD59+8gEgKFDrTBeWT0LFi6SFtfDx47g6vXrknCgy/YpGDFTvtbcuXPky+OXSM3LPMpqpUXFlkcKdkxQr+GpyJ2nK5+XZUrh2539gg+XN2D/yFKomCsR4iVIJDWIdGv/uxIjUYK4iB8rEqJnr4EcQ1yw58abECsvhQSfFNEyNDNaRtmYyudLwm3cuCFq1KiGlMprkPHj9epJppnfTXDA5CQf++jRQyHy3WrNcLqAnd1sjB07BoMGB6yZvn1F9WnSxAlYvHgRtmzejEOHD0mijZYzv9vgxtkfPLiPgWotJkiYAImTJkGrNm0wYdIkqaAInBrLKgJOFggbucKIR7IEx5lzLbRp3fqrelf27NkxzNoa7hcuGN2rZMyXayDw+pMIFZJ9+tQbxxRRrly+HDZjx6FL566oqzZcuXJm4o5lzJABqVOlEheeVmbatGmROUsW5FPWQuUqldG8ZXP0HdBflORZNsNJnMxy/wz8EG/f9sLIEcORPl06IVmOO+bYD24Shg66d+8G+7Vrsd1pG1asWI6Vq1bilOupkIufhCn8cH3PfCzp1RiDhozFxGUOsHdwEPHk/66NWGU3HOObp0QDZXm12uQHj9CbIoP3797LdAW6y7TqJk6agKJFCov2LnVH06ROJQkihgxKFC8urjfLon4H9sgzdr5ixQqMGTMGXbt1luRZ6dKllXup1oyyNFOr5+agSYYouGayZMmsCLAgqlSujKbNmqK/WjO2s2yl3ZUWL3vrfwWuG+pTcPggB1YmSBgfZmXNUEmtwVSpUiKy8og40YAk/zhgmmvoI2KSLMEYLUMHTEAHeghSR6uIll2Gnw00eEjU9Hzu3L6Da1euStz84kVPXFXrlOEfCkF9+hL2hGs0kmUQm0ISBw8eUIvSFm3btELxIkWQKmUqRIummzMfJ04s2YxUeEqsLDCeaIkTJUHChInEvaSKUUxFiqxBjBs/HrJkzYpKagP17d8f9vb2UmrFD/F70HI5dPCQes22SBQQPwu8SLRURWrfoR0se3RHrZrVZU6XWRkzGd1xM7yWGX1S7u+rizi1cw0WzrbHnjOP8bPh3Z9u7ceBruVgM9AKdsqb9QqF8tQvanHSsyARrl65Go5btkrJ1vIVy9BKHYppUlM16r/PXcRC1PfHBOPDB7pM/feg5crD0cXlgByobHQoWrSYjEuPFVO3DmIoK5nVCl/XjFov/JdWPMup4iiLObC1NW68uMiajWumksxJoxXMhgqfH6wZglbz7t27UK9+XXkOjlpPmozrMYHo6hYuXFimRxw9ehS3bt1S6++C/MvfC00P6OnugZiuSDajItnSXbZi9/vPwZ7o+9nnEi7MKI0WASRrue4iuMLDi7/GMUpMhpFov9bRKouWoQPGaH+eDPt/PH/2XLyL02fPYu/+/VivjI55c+dh/LjxGGZljUGDBiovZQCshw7FhPHjMW/+PDhsVJ6hWm+s/+akCq7p0IZRSPaV/wu4njiJKZMnSxkMRXzjK5KkG0lLklf69OlQtmwZqaFs27YdOnboiE4dOqFj+87q/x3RslVr1K5VC4ULFJSpnIG/R5JMrizewspl69y5s9o4a3FbnUpBXQCKdaxYsQrly1VAVLXZgm72SJEjyZeZJWsWpEmbRkiez5lNEcAg5SbSkgmXeK8s7Icncdn9NPZd9P/F6PJHuHd4JSaW6I5hPdfARXGzXyjsKFoJjIOOHDlCWa5FUCB/ASl3ogXJg8vEJJuQVNDPnt9jj+49cOP6/x9k3GwnTpzA+PHj5HkyZ84s1k3gmokTO7ayXjOow7AMGjRujDbKSu/YXq2Z9lwzHaVPni59rdq1kL9APhmfE3TNsF2aJNmpUyesVmR74+YNCWEFxZMn3srynYnCRQrJocC1wn9J2Hw/JIKpUyZjlrKOWbXStl0b2NrOCOXEF+CzfyCmVaMlWwalujhjt3rbwaYef0Wys0qjWQaSbE/0WHcVwR/bGDZ4EaQzTFfxEwU5TUwkGcbQwa/Ku7jvGe5jXN5ecYG1soKbNGuGcuXLo0DBguK1ZsmUBRnSpRdvJ02aNOLdsvSQVnNBxSN8bLPmzaRu137dOlz09JSDM7TCCgaTLONgK5evQNvWbeSPoPXBDcbNUqBgAamTGzBgAGbOnKFc2/XYu3e/sgyO4cTxEwHXSfX/Ezh8+Ah27tiBFcuWq1NnHHooq7NmjRoSWgjctLR8zczKYJiyLg4ccJEPm3j61AfjJ0yU5oLAx35/cd59AmX9mKjHVDM3x4D+/SSW5x1mbmAI8VHZLv73JJzx+KebTC0K3/04bj8Wlcyno9vEMyL3Fho1E1yAly9fkphofGXlBX6ujGWmTp1SkRr71RVRBfnMY6k1wCkTJ44dVc/wH/PfuHEdK1aukPgcu4EiK3LTPT4WCqqNwoz+oEGD1JqZKdbJXhe1Zo4FWTPHTsgo6kOHD8N5hzOWLV8Gm3E26G5piepqzXDYX+B7kDVTpiyGWA3Brj078dTnv+bLO3fvKPLsozbit1Y4L4ayihcvhqpVKgtZ86COpyzlJk0aSW0wu8JCB1/gc7I3xtaOjTQxK6JI+wNwDNFLnceZRcVRL3M8JEk1AO1XPBSpw/AGEq2z8w40btz0q0CTae48GD1yFDx+UrvOJCc/+xkzpqNd27YoXaqUMt7SI7o6WIN+d1EiRUEcddDy+4ofNx5ix4yNKJG/Nb5iKE8pY6aMMvW3vTrAbdVaO3TooLJsfx/aCin0Jll2+LiePo0xY8eiZMmSEgPlm2eygIuyY8eOUj514uQJqSjgSUFL4ldeFrPQ7L7x8/OVjbhz5w6MsxmLuvUsZDNyciZfI0WK5OoUbIGNGzZI5plVCn3V5k+rLFXez9BEYkWorOfMmy8fSpU2Qx2LuujewxLTZ8yE8/btuHb1ipB0aJ1eYYIvn/DhwjRss22GItYO6L/zScAdoQMO7ltrb4+WrVuheIni0tBBa4FWZMxY3y70wKtI4UJYvXI5Xr3UJRvPu7lhnCLEEiVLfPU66KkUL14cnZXVuVCtmZNqzTx4+ECsXcov/mzJ8HYKjstgQX8/mQTrvGOnVAGwlI8i0oFz2lgB0aBhfSxfsRz3H9yXCavuat00btJYrN+g7znwIvmzHjim2pAkWSb3evXqpQj+mJFJVv0lbx7h2Y1TOLhvKWxHlkTlnHwPmZG44FB0mLcLK09chdv91/jwo+X6WR3Iz6/j+rmD2LjWCoPbJEfWOOr3I1dGvhazMdrpKJzcH+KOX/jK4nP/OTltR5PGTeQw5GdOQ21kQBcmw0kEDQ1X11OYbTdLHXKNxcMJ/I5Yv8xDMoeyYLmGqlWthiaNmqCDIs4unTuha+cuaN+2vbyGeTVzGctOLkmVKrWUegY+D7miRYvmWLhwvtSDk4OMBb1Ilot/77796NKtmzoNMgnBktiY1OquLND1ymKlG85A868SVr/GFyHmx48fiVtpO8tOJoAGqmbxS6lcubKEKBYtXKDcx3YSa82k3Dy6DZxywFbQBeo+brxzanMznvZYEQU1MP9qcg3Exze459ABSwcUR5tFh7GEdVuhCLrITGKx7I41ycuWLsMw62Fo1rSpIs3iyJwls1iAga2nvDJkSI8RyvNwO3cWx44eFa+G4aTAQzlXrtzoqYhrs/Iqris3nDEyNj7oA5Iu1wy7tXi4z7SdKQd0ipS6siHGbEurA3eWnR0uKGvJcetWqTEOfK+BF70wurEsN8qcOZN6TDl069YF06dPw8GDB2Wel3HXj/reHu2RXvwaZXMjU/r4SKhIMnKk2IgeLx1SmJRAttazMHDbXfj9qFLtg/Jf3OZhXr8aMMmuXOQUMRArWmR1QCRC3GRZkK5UYxQcvhMOHuFPppIEusPZWXkvzSUvQx4xzaMs2tGjcfbMGXh53cKGjQ5ibZqYZP+6tpiopBRnHYvasFJeylLlzbCV9+zZc7jkeQlXL1/BtWtXpUmH2hJsPGIcdvfuPVi0aDEGDx4i4UmGEaIHeN8J1Ovnzp0LHTq0U173Oty/b5xSzxCTLFWsdii3njFUWiB8c7Re69Wrh7lz5uCMOgVevQ6Bin4w8eDhI/W6O2WOUKFChRFFfRl8bX4hdWrVlMFuLAdhJnjVqlUiJMzsovcT77+k6SCk+IDPH2/g8OB2GF+lLiY7e+Kk8T/2X8Lfzx9Xr1yVZOf69eswa7YdrNR30LJVK5QpW1ZmhuVXngTHy7BioFu3ruoQzPR1zdSpUwdz1JphZplWrrFBst2zZ7eUe7ECIjCcUahgIfTp21e8n8KFi8jmTpQ4kTIYMqCIehyFuBmuYgiCh/TWrY5i3XD0dmi8Twn7PHfD9d2zMcaqP3r3HYrBVqMwcpQ1hg/thwH9BqHnzO1Y7voUr38UN/qorK5bu7Br6RhY9uyLfgOGw1pZgyNHDobVwN7oO3QK+q85i6N3QivEYRhYdbCDwk3qsA5MhnHddO/eXcJGTGQyx8PbOUOtmLJYLXtaYtHiRcrY2yO5Ar8QzKJ79uy5GIEsK6W33V0Zi0yOx46t85QTJIiHihXKSTz+ghH0cENEstQA2LVrt5w6PFGYJOBJz83DeCqzfaEJWg/Xrl/H3HnzUNW8KuIHlIGwooDTDbZvd/6rlJ8Mwpen+PRsG+xaDUHbUtOx1vU+fpzDDzu8UxYo50IdOHQIy5avwITxE2Bp2RO1atdGwUIFpfyKWXy6ZuwMY5bZKKPHfwOGnhYumI8a1at9tYSYlCtYoABKlSotcdy26pAeNHgQZs2aqSzczcrSvQBfv9DPPGvQ4YUy3nYqi7aNMt7oDdGiTaIIl1Ul/L5ix4mNvPlM0alzRyxdtkxI0hiiTvTO+FyLFi5EmzZtlWdlilixdGGEnDlMpDrhxPFj6nDV/4AKNsm+ffcOR5S717Fjp6/xE8aohg4dglOnToZZ+yRLZ+jy26+zh0VdC/nw+V4Ye507d55UGvwTeHUJ71wnonOPUSjZfS8OXH8Rqg0IIQHjlSyb8rrthVWr16BSlSpfkxMMFXDhMnHFsFOYQK0Zb+9H2LDBAQ0a1P8ap2U1Q+XKVWE3ey7c3D1w69ZNaYRgB1lEnU4cnsEDd9PGjahatap8P4EXE63m6oC0m2MHtwtuunCNEUvoyClPnjzByZOumDZtJqpUMf8ar6WWBUs/Dx85hLd6hj6DRbK0IBmI7tuvn5RE8MVl1rq1ldQO/omuqee+lJ/bJETLDHcs9aFUUZuZUnW+YVD79qfx8d5e3F5RA22GW6P6qvtwfxr+SOH27dsYO9ZG6mW5ZrJkziK1i1T0+hMhHCYz2C7bsGFDmV3G92SaJy/mz1+ovDT92nI1GA8ksR3Ku6lZq4Z8N7zSp8+Adu3bYcOmDXioDsDQxt2799RhvEms2jSpdVzHxqmuyls/omfCM1gkS0Wi6dOnSwaPL0p2Hzx4IM6fd/sjBBsInnzrHdahRs3qYp0wmVLXoi72792Hjx8isiXyGc9cV2NXL1MMHDka489+wd1wFiV5/PAxZqg1w8GU0ZTrlz5devTt01d5PafUof3nYuQ6bVjd4SwdgdFjoFGDhti7ezfehUq8VUNwwEP31JnT6DegvyTTGS5InzETLC174cDBg98IxIc2SKSHDh5Gjx6WSJsmrcTyU6VOBctePXHK1TXEBsJvSZatiTThK1WsKEXD7IZp06a1xCkMDQgbA8x2L122RGoaeQCwW2jQgAFief/JAyD0wL/pEa5umYPpRetilPUK7HgZOg0I+kKmAG/eDPOqVWSBxo8XHx3ad5CJCaGTOAoZSLSLly5FiVKl1fuLihTJkqN3z55S4K4h7MF9yhbtUaNHI1fu3FI2l80kB3r17YcjR49JxUhYg7mdY8eOoVev3tJIJcal+nfUqNHgqKGQVJf8kmQZFGY3hGX37lLewBeqXLmSlNuwDCq8gLE/diKxuJi1jXnz5sXsOXPga8Rat/CD92oFHIXLkomoX2Qchk09yWlH4SYeSzAjy2QotQxoKVapXAWOWxxF9yC84KaXF8aOGy8lf1zX+dSaYabZx+fHLbgaQg80lObNny9CPPwuWNPcpUcPHFYk9/YPrhkakSwf7dy549fSUVY2LVq0CE+fBL8m/Zcky2Dw0iVLpI2SL5BBMfmECRPw+FH46pKizN2Ro0fQpm0bxIodS1yNJs2a4vTZ06IYFaHw6SW+XJmLtTN7wbT7Oox0ehAqHV76wv/FCyxfsQL5C+SXNZMzR07MmDYd9+6GL3lJWiInTpyUjsRo0aKKqE3jJk1EgDw0W2Y1fIs3b9/A5YAL6tevL/uWjSGMmTvv3Clr6U+D3OLsvF29v3qSDON75Ps74OISbAnPX5Is6xepGC9CHGoRsk/9yJEjAfeGL7B7ZMGihcrdyKXb3OrfufPmSp1sRMKXt8/xdFsbzBtpjmpzT2HRpfBjHZK4zpw+jU6dO0vmnhumaRN12OkRxwoL+Pv5ydgZdihyzdCqpVANm2g0hA2uXLuCodZDJebJ76BIkaJYrAy7sBBuCS74XpYuXSq1tGJsZsiAUSNHSWlgcPBTkmU4gNKAJUuUkCdmJwQLszlmJLzilNrg7dq3F4Um1tCyCJ4qTBEH7/DumQf2DzDHiEbVMGLHLRwNRxERxs4WK1eKheRMduXJkwd2dnY/VE4LD2AskCpOPXv2lC4v6m60bdcWp0+7hot8Q0QHW+gdNqxH8ZLFdYdcpkwYNnx4KM1OMwyMww4aNBjJUySXPAM7BR02bAhWjuGHJMvFd/XKFVgNGYLUqXTiGQ0a1lPu1XGj1qcZG7RAFi1ZDNO8pvKeCxUsiE2bN0uqKGLgGV4+2o1lDbphYKVRWO3pjTvhqDuY5S8DBgxEvLhxxYqldOGpU66iExBewU2ySHlAOXPpKmeKFiuKpcuWSqhMQ+gh8IAbMnjw13I6i7p1sXf/vnAZrnn79p205NaorisvI9laDbPGjVu/1zj7Icm+f/9BWs7q1a2HOLHjiCDD+PE2ePjgfsAjwif4xZ09d1ZGN/ODYOJl5KhR0oUUkmxg+MVLvHtxCadWHsTupedx3e9tsHVGQ4rPXz7j/Yf3wbboaJVQXa1+/Yby2adIngKTJk6W8S7hHceOHxPZRLbXpkqdWrmvVqIupyH0wBFTjlsdUbFiBekcZVUQqwso3hNeQWH5MaPHIGWKlLLGa9Ssge07tv+2qeaHJMv60yVLlkomjW5U1SpVZKKAMUop+IaoUu7mdh5nzpwVM5wlP9zUxgAV7NmFljhxIqmDrN+ggQz501+o5t8DifW6OqGZkNi7by8uX7r02++eY7UXLFgoWgBRIkdF0UJF4LBufcC9+oOHo5+fvzQ2uJ07J9leijuLjoCRlLDuqeeaMnWaaMhSIJyzvTjBVkPogR2BY2zGyrQL1rebV6smgj1/olwruOC+2ObkhKrm1dR7joFs2bJg8uSJyoO7E/CIH+OHJHvnDjt1xkrTAUm2Q7v28HC/YLA1SALkQLXxEyagh6UlunTtJpNjN23aKMRrDLx88RIrV6xA0SJF5b0XK14Mq1av0qtT418FD711DuulWoMjYIYOHSqezcOHj5S3EPCg7+Dh4YmePXuJaBDrYps3boKjhw1PknJGHF970sRJ6Nyxk4yXtuzRA7Pt7HDsyFH4Pjc8KP3q9RsZnpg/fz6xqszNzbF9+3Z8UB6dhtDBJc+LaN2qNaJGjYIkSZJiiFpjN2/dEm80POPq9WvK07FGipQpQb1aji76Xd7n/0iWf6KHpwd69e6FxEkSIalyua2trEW31RDw91etXCVqXZzXxORU0qTJRD+ypjK75y+YL/Wuhk6upNt68MBBNFQWLEfZMJhuazsz3I+mDk9g3eLs2bORL19eqTtOly6dlK3MmjULJ0+e+qGoy3FlYTZo2EjE0TOkTw+bMWNw66b+mvwfP33EY+/HIl83Zuw4NG3aFMWLFRNrk8Xh1A7trg7p3Tt3iTKcIaDxwKGNnMJANzCnSQ7MnD4Dj+RQiTgR/fACqm45btqMsqXN5PPOni07li1fjneh4G3yu+V65rRjqrKRHwwBxcZXKqPNVO0NvnfqLNC6/dXz/h/JUiSZKvTNWjRH3PjxYZIzJ2ba2updUsFFSoLb4bxDRnSzj50yd1TXCdQUZVa3SpXKsF+3VkaCGwKWClHvtFOnjjLML1GihLBRVnl4dkPCGxha2bd3Lzq2by/lKtRW5aHIUqceyopkVtVLue9BM6vHThxHzdq15ftkM8i6dfYGHWysn6QYyKo1azBpylSMGTNWJhtXr1Fd1Lz4OoyNcYQQh+UZWiImh0SDhrquxgQJ0KtnT2mqCI+lZ387biuLdeK48cieJat83hUrVlSH3O6Ae40HEixnyHEtTp48SSQrKTxvyMHJ59y3b6+oANLryZ0nD2bZzZbn/Rn+j2RfvnqFrdu2oUKlSohGd7tESZmf9fKlfh1e3LDUe7SdaYvWrVujU8eOMpenkzKzCxTIJ5uFF4l3wMABuHvf8MD3vfv3ZHIpLVmqPw2xsgoXhc1/E0iQx9VhO378eNSpY4G0ypplMXbq1KlRUa0N6sZy8ihDCwSTR1UC1JMo4M1YriGLmbF7D093deAfxbnz50V4mYcnJxuUCbA4eTWoX09GkhjarsvROv369EXSxIlEELp1m9Y4eeqkVsoVCuDhxZAP5SaTKE+5S7eucDvvFnCv8eDr+xyrVq1AtWpVlYFQSIZ6cniioWHPc2fPoEOHDtI7kFwd9AMHDVbr8+pP1/v/kSxrGjmWmQPHIkeJinLlK8BhvYPeliAXP8fDrF69GouXLBZ1fMZfuYCZoOLsdZ4I3DDNW7TANQNczEA89/PF6DGjEU9Z4hzrXK9BA2zctEmmjh498u11JOD6/ucfXUHv+9Fjv78/6M/6PvZH///Zfca6jh09hjOnzyjr7jjWrrVH7959ULBgoa/z2wIHDXIW19KlS+B6+hSWLVuCEiVKyHfJSQKcamsI3r17L4MOv/egbt66KYc1Xyd+/AQyXNP1lKvBic1HypW0pQiSSXYRG+LfxjEzGskaHydPnpQhlYxpZlef95TpU6UCyJhgDoZi8s2aNUGsWJx0kUAmGLMG11CSvXH9ukz7oMHBihTW5v9KOOb/SJaDBRfMny8TB1h0W6lSBWzauEG9af1IluVgjx49FrFtDq57HfA8/BAcHbfKpNLAsEHbNm1wy4ud+IaB4uLTZsxA8uQ6tzKdcnkrVqoorXv169ZHPYt6Up7Gq676mdf3P3+9vnts0J+/f+z398vvBjwu6P8Db/vZz7/7/8/uM8pVR13q/Tdu3BitWrdSZNNCqkuyZcsmiUR+nnIpkmMopmjRIsrqa4lGjRsI8bIJgYmjIwYkvWgPsB6bm+F764DCP40aNZIqgJKlSiuSX4ZnPs8MspoJxnU5UaNYsaKycZo2aYzjR49oJBsKOHz4MCzq1FaeZnQZtrpy5UqjdnhxLVCIm5Zr1qxZZL1yFh3/z9I8Q9cKR2IxP5ErV07EjxdP2rEPKqPiZ2vl/0iWJzqTHnwCZv44rXPL5k3KItUvO8+NQivjR2+AveMsWKcbGl+dagP798UDI4QLGFeePXeu+mB16jm8qOxDMo8eLboigmhilWnX/1/Ro+o+Hwq7xIkbR+KxSZMkQYIE8b/OQvr+SpAwPhInTSyavtHU51u7toWyiI8FfBvGA5Ony5ctR/HiJZA2fXpY9u6F8+cvBNxrGDgYdMPGjZL8Yktw48aNcOzIYY1kQwEcDcX62CjqoGYV0AaHDVIVZCw89fGBg3rO2nXqIHbA8NUsWbJi3LhxEi4wlGQZIlvLbtiSJeRArlevLvbv2xd8kiVLz1UExTZauoVVKlcW1S1jl0CxisDlwAH1BuuLNkKRwgWxYvlS6Sc3FCx0ZjA6dYDoLkmcIy2YJeeJFjiPnRcn3PJKwyvgtuBcX3/vB/d9vQKe95vXCHJb4OOC3iePDfocgVfgY4L8/M1jg94f9LYf/Rz4/6BXkNv5+XDUMi1TTnzNqhYoO/9ix4r1DbnKZ6tuY3KMVRwJEyQUkq1Vq7aEMYwFHtL0hBYvXiTD75iES6Xea4dOHbHfRTca3tCNw6wxp22UKFVKR7LKOmHoRCNZ44MzAjnhmuunaNFi2LhxE17pmfP5HvRIDhw8gGlTp6BZ0yZIHTDuneuYU4yNQbIMnbLEj4NcqU5oUbsO9u3ZG3yS5WiHZcuWIV8+XVKqXPnyMvve2Nl5hg1WrloNM7MyItLbq3dPeF4yPEtMMGkzadKkr/Jk+fPnF6EbJtxY8znUaiiGDBkiF+PCvIbwCrgtONfX3/vBfV+vgOf95jWC3Bb4uKD3yWODPkfgFfiYID9/89ig9we97Uc/B/4/6BVw++Ahg+XzGTFihNQws1+b9YxFCxdVC0o3Uy3wSqkOLvMqVaTEj4LcBdTnTJWiSpUqyVRXY4GWg/MOZ3Ts2EHInDP0aXVztHP//v2lMsDQxBfbaOfNnyct2Tz0mzZrJlU2GskaH5zFV6yYThOlaNHi2LRpC169MpxfXitD8KzbOcybNxdz7GYpop2MEiV0OtMsG2XtvzFIlgYnk77VqlWTA7mOMir2kmR/khf4P5J94f8Cm9TJYlbaTNxGxr2YtDL2PKa7D+5j4ODBalHnRZ269aTbg7FUY4BND1aKKDiTPWqUqCIUQ3V1ZqgpDsyLMRtezCrzusQr4LbgXF9/7wf3fb0Cnveb1whyW+Djgt4njw36HIFX4GOC/PzNY4PeH/S2H/0c+P+gV5D7+DlxnDJrYhctWIIWzVuqRaojNy5YljhR+7N3r95w2roNVy5fgeNmR1RW5MqEVKlSJUUy0FjgombtNvVeGSvmmHG+D3mt0qWwcNFCPFEuoiFgrG7YsGFSHsZOweYtmuPY8eMayYYCnJ13KPILYslu2Kh39VJQuHt4YMnSJcoTnwMX5b47OW1F1apV5HXomdFooF6CoYkvrscd6tDnuCuSrFiye0NAshRWdtnvAo5xoW4BLdr58+cbXPAdFCwT2+bsLC2vVapUxfwFC3H/vmHNDkHBWesc6czJqHHjxMXwYcO/lhppCB7Y9Wdvb4+OHToja5ZsitAiSbKJ1SCNGzWS0TLnzp4Dp1kTrNyoXq26LGhOgd2yZYvRi8tZ+bJHWRDdunWT0A/j7PSCho8YLiLchoCj7DnmPlr06GLJdu7SGWfOnQ3X4jZ/KzimnSpWPCSZON2gPGVDxst8UaTJxNk2ZajNnm0nlS3c76dcT6Fa9WqyJhnSohY2R2kZCk7WdXBYr7zwUhIuYIOVy779wQ8X0JTm5unSuQsSJ0qE9Goxj7Oxgbe38YS6z547hxEjR6BZkyaYOGGiMuGN105HBR/OkWqhLBEqQaVNnUa5DVONHlOOyGD3yvr161CrVi2kTJlKXPOUKVOiqrm5JA8OurhIgjToojp54iQsLCxk43DIpu0sWzx89CjgXuOBoSAmTtgBFleRYZLESaS+9dLFSwGPCDlYycD8QKVK/1k9Y8aMknIxY61LDf+BoaSatWqqAy0aChUuhLVr1hg0xcTP1xdHjhzGkiWLsXnTRjx8qDPYqHHBShd+pwwzTZs2TbxcQ8HQ0vz585A3r6kkvhoq74qeMhPuP8L/kSxxS5EerT+KN5CpLS0tcVVZh8aQOWSLG7O4o0aOxIply3Db63bAPboCdH4IhljNfI6N6vnLlSsnJJs3jykWLlxg9HBHRMYzZRWwRKVwkSLSo03JyL59+8jnSnfrR63P7N/u0LGDTA5OljwZunXvKoIuoQGfZz5C9smTJkeCeAnQv08/XL18JeDekIM1uSwnLFxIJ8pcWlko69bbS0JNg/FBkZ9mzXlIxhVxfVu7WbgfQIwhBXM4nJg9ceJ4GTW/fPlyqcEnwbI0rFgxXUyWSd1+/XSDPA31yllmOobaLunTSU11i1atcEz9TT/zen5Isk+f+mDOnLnInSe31Eay42e/ywG8NbDvlz3v27c7ifzgpEmTpSiZZj7dwGtXr+Cgsib27NlrkMwc29tsbMYp9yCjxNaqV68OJ/WahvYs/0tgd9zOXbswbPgItTD7Y97cubhw4fwvC/6pkjVx8iTRZY0RMwYqVCwv37U+oPX44sVL8XCo0vbs2fNvLEquw5kzbZEqRSpprR07eizuGzDe5olaM3Nnz5Ueeh7MzZo1xYmTJwLu1WBscOIKR2xTFyVFqpTo1ae3NCzpA3o2FJiqVasGihQpLDXU7CZlk0qNGjVEQpEkSzLksFV6KCRgQzRr3dRe6Nq9uzQ7JU6cWHRemDP4Waz3hyTLBNSWrVtRqWpVxFREldc0H+bOW2CQkPGHD+9x9OgRdO3aRVmZ5dG2bTtMnjJFkhYzZkzH4EED0b9vX8yePUfaJ/UFW3iZDedmYalPn3794HnpksHB7n8JDAOwJpXKWp6eF9XPD3+7KKWsZYczqqlDjYs6c5bMmDt/riLEkCczOZr77JmzmDZ1GgYMGISly1bgliLxQPgpAp40eYrE2QoVKijWiyHF7Bxt31N5a8mSJkVSdfVWm54JQA2hA+ZMho8YIYYQ295r1KiOA8rA0gfkJI6Zyp0nl4S1mIgi8XHvs+2V1S5cjwxj0eiqUqkinLZt1Tt8SEnWAwddUKt2bSlxzZY1G6YoHvuVgNYPSZaEdFadNt0UWydJkhgJ4idEx46d4HnxYsAjQgZuQFoGffr0kYQFCZBxr5y5csHU1BQm2bMjZcoU0pM+b8EC3NdT8YsfHHVvA2vw2KW0ZOky+KvTTkPog6GErl27ymLnArfs1QtXlIcS0rI8ejyM05UvWw7JkiVHqdJmGDdhAg4fOSzzwihQ0659OynP6aMI8ZzbORl4pw/43pjEoN4CN00e5b3NVIe+MZpiNPwY9FxXr16DYkV1rnwexQP8vj9+CLl1yeei+DfXQ9myZVG6dGmUKlVKWryp8MdmGr4GPXIeyq1btRSPWV/P9s3rV1i/bu3XybrlypbHpg2bflni+kOSJdheO2e2HXLnzi1PVqRoUen/D2nIgG4eFZumTpuGQoULy2nCziv+y4t/PEmXV/VateBy6CA+6Wl1cmTOMCsrKabnycVREVTr1xA2YKyLScaMGdIjslozJMfVavOEtLKDVukatQnN1IYJXBsMXbVs2QID+vdD+3bt0KBBPQwc2E8UkV6/1j+pySm6rJ1mizDXTP26Fti3Z3e4Gnkf0UBOoMvepEkT4ZYUyZNjzOjR6mALuXHFEBYrBo4dOyZNDs7OznJtVZ444/ZUhONr0ENhKSdvJ7fpm9C84+WF8TZjkT5dWsVfsdGmdRucOnky4N4f46ck+1G5jAcPuEh5Ak16Ucka0E+54yFzozgb59w5N4xWHyI7JGhlVqhQXqxWMzMzOXF4Ue5sjI0NbuspFEGLxHHLFnWylBNLKn269Bg1YhTu3DaOGLiG34Pfwd49e2T8Dw9SWhG9evcW9zAkoJXBRNqYMaNFbCZ12tRIljwp8prmkZpEVr6whIwCLv7++pfmvX3zFtsdnZQLWUURbCSkSplSrZkRuK82LcuCNIQe2PRkZW2FRMq1p6HVKGDM9ns9PBKuO5ItPdnAi4nu3bt3CccIkadIIdoFt27d0jt0yN87sG8fGtVvIJ2O9MrHjBoNr5u3Ah7xY/yUZIl79+5K5xQ7a/hGCxcqiGVLF4folH/z5p3IgPEEWbhwIZYsWSJCHMz88WJ3GcftsibT1fW0enzIY3g8lbiRBwzoL/EYvteaNWpKF4ax2vU0BA8PHnCUy2QJB/F7KFmylPR5hzRTz41Cndg1a1Zj2Ihh6N69G3r36im1jps2bca1q9fwQQ/3MiiuqnU5oE8/pEqRUmQxq1czh5PTNjEwNIQu2KG3Rnk5xYoVl3rn7NmzYfqMafB+arwR/keOHJEQQiDJsq2WY4v0BcNYM6ZNR9ZMOtGZcuXKwmH9+t96ar8kWZ4OLDKnLBkV72khtmjeDCeOHQ32iUP2f/3qtbiALN/iv3Qr+cYCL7553qZvnIRlX/MXLJCQBv949vNTqJu36+sWaNAP/L4pMWdhwcRAZLFmW7VqiUOHDobYgqCFwnXBpMKtWzflomvImV+8zxDo2seXophaMwwTZMqYCePHj4OXEVTgNPweXAvu593V4dldmj+YoGqu1snxUyeNMl2a+57lWpTFZI0smx+oyaIvyTIZfFI9X5OmTaWLNF78eOjZuyfcPdx/u65/SbIECXDevPnInVs3ZjtN6tSwth4qSY7wAAp7OG3fjjoWFoih3A66Hs3UB3Hk8GGNYP8QvJ94Y978uVKsLWsmDdeMlWh5hofvhEXj7D2vV7+uiAdxzdSv10A6hVgFoyFsQC+Tqmp5TXVxU9bMTpk2VQZbGgoSH4d77lPuPfWxHR0dpUxMXzEhjrsfP3EiMijC5nstWLgQli5fFiwP7bckS1DJfED/gVLQyxfIlz+fFKvfv6dfFYCxQMv3kCLTTp07I7V6b9wwZmY6rQVDSno0GAY2rVy5dhX9Bwz4Gr5hNpa1rX/aUqR3RguHdZqJEusyz8WVy7p44WI88da/RFGDfjjv5oYeyprldGl6y5WrVJFmJYaLwgvevH6DjQ4bUb5CBVkvbNDp3bcvziteDA6CRbIkM/bmNm7UEHFi66oDGGtbMH8BHupZbmUoWLJz+sxpDBg0CJmyZJGec6ptTZw4QZuZHw5AuUnObRKB7ThxECNGTFSqUFlGzRsSFzMEtGDOnj0rnUGZMyuLhGGCzJl1Y0nUmglpOEOD4WA4aPOWzaLcRgJLlDiJTLFmm7a+4UNj4+TxE+jcvsNXVb/KVatIH8GbYL6/YJEs4e/nC4d161CtqrnEJPhilClknIPyYWEJniwManOz5MiVU95LlKhR0aJlC7FStDBB+ADbczdt3oQ6FnUQL158xI0TDxUrVhI1rbC2aN+8fo2TJ0/o1oxJdmUoREMe0zwYamUFYwl/a9APPHSpYZIlsy6hlClTFgyzHmZQU5KxwKS99VArZEynS+SaqLUzZeqUEIU0gk2yxNPHT7B08VIpk2KNK4u32Rs8cdIkMZ1fvQ7dTD4tDaqe79qxC107d0XGDBnkDxeSjRIZjRo3FqEPY0kmajAcTHYuXrxYisRZO8vvqnRpMxHr8PBwx+tQXjMsxWJX0J5du5Rb2u1r1QPrYqlPS3FxfeuyNRgHnz99DvAwBom4NoXfCxcsJJUk7LwzpAVWX/A12SlqM268NExxzSRNmkQaqhjiCMl7ChHJEpQkXLxosWgpskicFQd58uRB7969sd15O577hk4s9NPHz7h8+SoWqteuV68hUqTQ9STz4lwp/kvXj7ESijhrOqDhA/6+/ti9cxc6tG+P1KlTyvcUPXoM5M+fT7q1qMv59GnoxUKvX72GRQsXijwjJ0kErpkM6TPImmU751Ofp3q1/2owHj68/yBeKKsNqDfAZCQTpxRiueDuEeYH4QUPD4wcPQamefNJ5UNc5YlRY5g6ySENY4SYZAmW1LDWtW7dul/jFKxDs6hrgTlzZ+P48eO4f884cTcGwKlHsNVxG4YMsUKx4iUQJapu1hQnXTZs0AAWdeqI8jlvS6+s2549ewrRGlvPVMOvwQLwu3fvSqKU0nNOW52wcN4Ccf06duqAeg3qSnF4ioABlylSJJfhlnZ2dqJr8UBPJabvQY+Ka2aHszOGq9cuUby4GARRokVFhowZZEho4UKFYG5eTdbK1GlTsXLlCile50ZnzbXPs2dGKSXSEDywzNPTw1PK6DhfkOuDV65cuTFEues8DP2e6y+HGFywmorezZAhQ7+GIqmH0LBBIzg5Of22JvZH0ItkCfYMb9u2De3atROCYzKMgxcp6sy62lm2s0Rli64ayxzevX2nrNFf1zYyHEALlMTKP4axXlrHLP9hLC9FipQSomAVQZGihTHWZiwOHz6EnTt2wLKHpfQms+aRVRA9e/USSTVDx5Jo+DFYp8rPlokLfseMn3ERzpw5U0YvN23aBBUrVIBpblMR0ajfqAFmzbbDSnU4d+vaHenSppNOwpgxYyFHjpxiJcyeYydxU86ZkzWjLAaph/1FjP37NXNdrZltTtsUsVvJEFB2cXHNUIXJrFxZDB46RG1kGzSoV1dGOtM44JrllNqaNWugQ4f2oqDP93lUGQu379zB82fPpTfd0NpcDTq8//BeDmTG7L3u3JaDjf3/E8dPUOugGXLmMhFLNnqM6Oq7i4q06dKhpeIU5oTYBh0aCTGu5du372DduvUiMJUuja41P378uNKN5rjFUQhYH+hNsgQXNRNQY8aMEVGGwNOHQrZ5cucRS3fw4MFShbDDeQfOnj4Lr1te8mY/BFmwb9UCfvTwES5dviw9yJQumzp1iszlqlC+PNKnTycfNp87tdo0/KMp0Hv12lX1gb8XuTNOR+3evYdsHD6OLW+WPS1x9BiH4WkWrbHApKKfIlaKBW1Vh6ytrS369euH5s2bo2rVqihQoIAcdizd4rx7fhfs8W7ZqhWOHD0qMfXTp89g1MhREqelhfl1zZjmkcmfgwYPwrz587Fjx06cO3sWtxRxPvd9hg8fA0JAinPfvn6j1sxjXL6k1ox63k2bNkmctxPXjCJ3rhke+nxuCo43bdIMq1avwpVrV+Dh6S6qb8mTJZP7eTHsFS9e3K+ky/bvWspD6tCxI0YOHwnHDZtx785dLalqAJiNv3XbC4cOH8QK5TkwFNC9R3cRYK9UoRJy58yp9m1aEempVLkiqlYzR5q0aeX7oapWGbMysB5qLUbVkyfG6wx7pA51Z2cnDFUWc5kyZeW1AtdN69atsF0ZD/oSLGEQyRK0JGhxsuC3Tdu2KFCwIBIn0dVG8qIFwWLj2jVro1OHTmpxD5ZE2dx587Bk6VIsWbQYs5T1Q+uBfe4tW7aUccGZMmUUC4TPwRMlo3LzqlapghHDh0l/PC3poHj//oOIwfTo0UN0C/h7bJwg0R4/cdxgLVwNOvBAO6wOVitra5mUQKWz2HFiS+8/RzwHfu9Br9SpUsmwxaAhpBs31JpZuRIdO3QQUXBO4Qh8PCcecPYbp9526sg1MxCTJk6QSpZFixZh0cJFsJU1Mxq9e/URK6dSxYoyXfe/NaMbOULC5QBNjlQK3CgfP32AnbKq2coZ+JpBr6jqOaJF0x3qvBInTIxGdetj+9ZtYrlrCD7okXhe9FTehZP6zOdg0JDBIthtVqa0eMDxE8QXqzVypP/WDnVhbcbZYPXaNaJvwMOXVi3vS54suYQHWapJnegLHu6KJB+HaH/TamWjwoXz57FNPce4CeNQu3ZNJE+eXF6Dr2WaNw/69e8vYQpDBf8NJlmCp7v/C3+cd7+ApSuWiUJ+gYIFdNaM+gD5IdLFJ+HSYmEcN6XaeDKCOnUaidHx9GB7HR/Dx1L4mTOleJJVqlwJw4ZZY9fOncpduCsF5T8C3UaOcaaACJV9SM6M0dJ9ZUvcz35PQ/DBBc3kY9FixaX+ld9t/ITxkSxZUiRMmOCrfmfgxf+TRBfNX4g3r/4rMJc1owjL/YJaM0uWoH3bdsibN5+oJcWKTYU2rpk4sh44nSOprJmU4qnw4oYIXDNx4sb5+l74L62hSpUqCrkyhEFB8e+/e25gChMxzBX0/VLDIE3qVMiZ0wRZsmSSv4nWdpFChbFg3nwZuxM8fMLH92/xRh1KPJh+fr3Ayxev8PrtB3xQRnJEs5MvXbmMCZMmiIYAE1qMb7LVmlegF/P9RWOKY8IpwM/OUttZs2CurFquDXocrGyiNGpps9LoZtkD8xYuwN59+yQXcP3aNeEIttTTa2J1i/djbwkzXL12Hefc3LB39x7MV0Ze965dlTdVStYVn5PPzake5tWrYYbtTBnMaIzQhFFINiiePlPu4JnTcNi4AWNtbNBauYlly5ZBBmWZxlIWz48+1MCL7h3LJChrZ16jOrr37AlbOzvs2r0bV69eCVZ8lcpKBw8eEqLl+Bw+L3uXhWhPnNCI1kAwIbTGfh2q16wl1ibHInfu2lkSW6VLl0QiRUpBv1OSXjW1QbY6Ov6UQagjcNr1NNatdxB5ujZt2yi3zUy8GRJo0Of7/qK4SBK1ZihpR2nL7l27Y9YsW+zatUukL3+m87l7zy40aFhPSDTo85FkKQTeu08vESwZNsxK6q979LCE83bnYLqN6jV9T+H4yikY3akTOv3qUpZ85w6jMW3DGbi+VOs34BkiAujlHjl2FK3atBbjip8va+ypE5FHebepUqUWQyjo50/yZZ6HzQiBYB0t5QutrKxElS3QneeVWH33pvnyiYpfXQsL4RuOibcZP159fzMwU12M9Q7sP0BirbWVFcxcQV5TUyQJ6EaU51E/i9ejPGXnHTtw957hAxcDYXSSDYonavOQ2NatW6dOs4no06+vjIagBmOLps3RpFETEVxortw9frCcMMtFzQTItu3b4XHxIl7+Qgz3Z3j37gMOH9ZNYQgs28mQPj369ukjybjw0knyN4Kfneely1iz1h6LFi8W1SpOph05agQ4vZObiS57oEWbKHEiISkOzwsOmERzdXWFvf1aUYDr17+fxFkp9MG4L+N3vJhc5Zrp2r0rrNSamacsk+1Oas1c8BAL8XfgXKiBg/srTyedhBZoBeu8qFgSk2Up4J59e3DpsqcyGlzFE3r48FHwkl8f7+H9WRuMrZEGsQI28c+vaIiUsCYaTnLBIX8gIo37JMleUJ/zOEV49RvUR8OGDdG9Rw8MGDgQjdV3mDVrdkQJEiYg4bJOdsTIkbh+4/o38W/+fPPmDcUl9ug/oD+qmldDdpMcQo7feyO8LXPWrMpYyyM1rky8Jk2S9JvH8HfoHVEvmyOqBgwcgPXr18v8LmOH3UOVZAnOImdchoTLiQe3vG7LnH73cxdkxAgn13p4eopbwPIfZpafPX+my+aqL0lfkAwo+EFrgWNFWAifWVm0/DBdT7tqdbR6goud3gC/UyY+qYw1b95c0QgmoXKBp02XXiwSLmYOm+Nnzs0WXPC74fPTwn2o3HOvO3dwWVmldAepM8uLYh/X1Jq5o9YMExfUqghJBQBdUY7HMc1rqg6FyHIIlyxREjlz5pAQRDYTE7WZB+LoMWrW+st7Crrpf4ln53FnVTN0LBHrm439wytWZkSqPh1jd92Hn3rrEaktgp8Xv8eLFy9JApqHp9v581ixaiXqBJR/Mv7Nwy26ctXZGl+oSBH1vcyHj+KA7xH4fBwCsHvvXhlB1K59e0m45lfWLBtNGHpk8pJTlhmSTJU6tYQpqDeQXN2XTj2G7fcMSXTq2FGSpfv271Pr6I48d7C/4xAg1En2T4JlPQxcs7OHMRwuap6UfTm10vXUf9lqDXrhudoIa1avlnAAGwzixI4D86rVlKXZXBJi1AbIVyA/5igSJqmFJ5A0WR1BDQ5aUKybtRo6VLydrMoK4lrJlCkzevWi93NKrLLg4SOeXd2NHSMao1+bxmg7aDxGKktu/DfXRIwbZY2BjTKhds0SMJvqig03In7X2Wvux4MH0K1bV5kBFydObGTKnAkFCxbQxeJjxRKBmM3KM/rd3qSSGsmWHgYnInDO26TJkzF0yFD06d1bvUZ3dO7cBZ2VF8QxWr3V9zpo8BBMVI9hed7OnTuF9O+oA/zjp9DtKIvQJEu8e/dWEa2LEG3g5Epmnfv17ysWrb6zof51cAbWwgXzUbZMGcSIEV3Kn2oot2v+vAWYOGkK8rAVUVmILMOh2x0eD7Tjx0+gRo2aUhVB64YVC5wRx5I0NrpwrTBu2K1bN1F7+32WWVlBHx7D66wjlk+eiuX2B+GuDLIfZQG+vPLC+fG1MK1TLVjvuIPD/2+4RSjwsyOxtWjRXOL2DM8UKlwQrdu2RqPGjaTkkt5Pi+bNRcM6pCCB0+u5cvky3C+ch9s5N5w5c07adTkd94K7Oy6q++6rx4R1XibCkyxBN5IWbXtR0tHFZphUYYD81OnT39Tsavg9GNaZr1xtJjSZKGJ8q07tWrBfu0bCPxOUtZAhY0ZEjRYVbdq0xuXL4XPyK7PNXTp3VhZ4bHExe7GB5fhxqdVmiCNQ2pOHc5euXUUX42eJNMFndZA8c8c9dxdsP3IVp2+//Yn7r259dRJbWnbHyFojsOqSD26FfXt+mIFuOEu4mjRtImPA+ZmamubF2LFjsHjJIrRs2UoGZtKVZ129IZOC6XF8UlYuhzJycgY9FuoMfFR7/E9pVPwTJEuwMkEXOuj0TdVBHynv0mK0wcXdu3cwd+4cRbC62Uksw6GOxaaNG+Dt/Rhu7hfQrlNHsJuL7h8Psvv3jZepNSaYJ5gxY+ZXoaEKFStgz549EmaiBcSWWzY18L7UaVKjY6dOcHE5IPf/EF8UU/p74YX3HXi9AHx/tqffX8Ezt7noajES9VtsxbFHr1iPECHBWDlHTzVq1BDx48eTzzJfvnwYP34CLl68CKdt21ChfAVEixodBQoUVN7RQjx58jTgtyMG/hmSJegmMBnWWVkvgaEDtuz1Ve7h6TNntPKuX4AJAdYfkmBZW8gQAV2+KpWriLq9r9pMtBSOnjiGFq1bCilRqJsNBExghUdIzP7gIalayJYtKxo3boi9e/d8TX7QorW0tPyq3MXECbsQDx8+rCzan4QOvihmVb//q/TJl4c7ccuhM6r3nYJqc67glm/ENGOf+/pKfLVx48ZIEJ811FGUBZtHEew4SXTzM1pnvw7ZAmLgNWrUwL59+yOcwfNPkSxBd4/WSLt27ZE4sU7cJkuWrOKmnDl7RutP/wnuK4JlMX65smXFeo2iNkyFihWlay+oCPc15YLPUUTMwYfjJ4yXwys49c1/AiKDqA4AJ6ftsJ0xHRsc1km1RCBIwuwiZBIlUPUtTdo00kV46MghvHmrn/354vQcHLQpiFbjZ6Hf4Td4+tb4Ge0/Db8X/tjqtBWNmzSWpBY/Owq/jBgxXCpDvvAwUli7Zq200bKZpYdlD1y+ekVuj0j450iW4ERcnpiss0yVSie/x4wy6/fYSKFZtN/i0YP7WDh/HsqV0U3+5Cy1suXLY9GSJf+nnEU1pRvKSuEs+itXruCVOtRCoyzGmHj54iWePH6MF35++Phdgo7t2ocPHxWiZcKUfz87yrqpQ+TAoYPy9wUf/Bxe4Ia9DRbVLIbh09diwyN1y58JFYYa/Hz9RKSnSdPG0jarI9hcGD58ONzczilD5r8/mIp9I0eOkLAS9SdCSyr1T+KfJFmC1tX+/S6iupQ8eTIp42GMdtCgQTh77qxW3hUAtpEuXrQQ5cuXBVtdmcwqX7EC5i9ahDs/6YqR5IPyCIJf9hS+QfeVGW+GDpgF51rhTLlu3Xvg4KFDISDad+rDOYt9U2zQK08fTF5wDB6KdyPSSnvh/wLbtzmhqbJgqUfBxpRcOQMJ1u3/DBgecPSE7t65K/HbiOhJ/rMkS7CshNMs27Rp+zV0kC17dhlJwoL3fz10wMW/aMFCaTRgDDZSlEgoV6EslixdjLv37gY86t8AD2XqjHbt2g2pUv4Xz7fs2VPKu968CQbRflJW2r3VmD92OIrWWg5bp9tgb1pECRa8UIS5fft26chLGiASlTNnTtETJsH+q8nlP0eyLx/j1X13eJ50hYuLJy7c9lWOVDAX3Kf3+PTsFp5cP4cTLqdx6MQtePm/+2E94u/w+vUb7N69R9o2WcbDhWFiYoKhQ4fi7Nlzon35Pej+fgwoDQnvrrC+ePjoIRYtXiijhviZMMllVs5Mbnv08L8Y7L8EdhEePHBQdDECqw4YQqCWMUXKf1nepfDl1V283meJcWM6ouCEE1jp/vv2378F/sqCddrujGbNmyNBgB5ETrWPhllbw+3s2RCNa4loCGOS/YIvnz7g9cMruLp7DpymtUUH83ooUGAo+i47C1bH/dJ2/PIZn9+/wtNLB3B23TAsHNQYlfM3g5nFfCzx9IZPwMNCCmaKmVVmTSfFRujisN+ZRHvu/LlvOkJIqsyW82SmtcsC6Ih2Qt+7dw8LF84PCBHoWkNZEztv0QLcEQs2Yh4swcE7ZdEeOnQQ3bp3lQoKhg7Sp02H3sqipa7tm7c/Vx94/9gDHtPLw2ZAA3Td+giHvCPG58j9Q73oJo2bfvUIOXBwGIdUnlMW7D/e8BO2JPvWFy/Prcb+2U3Qu1lWlM4dH/Ej0XpsisZTD+OMesivSPaLtyfu7R6HpSPKoWnVlMiVigpNOZDIZBQmnXmIRwGP0wevXr0UndpWLVsiUUDfPRfKUKuhQqiBoNvo4uIiXUHUrt28eTOe+ehL7+EPJNj58+cJwYrotSIREuyiRQtxN5zWu4Y1WHVw6PAhKef62kWYPj169eqJw0eVRfvDqoNX8L25Fw71a2FE075YeOU1bkaAs9nP3w87dmxH82bN1L7RqWNRp9eaBOumDJR/2IINRNiS7Ksn8D0wCVvGlUObZnmQzyQ+ksZIhOixlEU79xRIZb8k2XsncMO+E6YPLALzqpmQOVlUxFYkm7nYZMy64A1Du+M5NpoSeWztCyw7Yf0ke9o9PTxkwZBkly5bKrEmCgizT/piOBhdbDi+KKv8ARawVbasmYhWU9e3TNlyWLR4kVjsGv4D1wGbW1hznTZAvZ8hhG49uuLAIQo9fxcK+HQD91wXo3/ZQejafB0O+77F3y7/7evnJ8LZzZo2RcIECcQDZDuyldWQgCoCjWCJsCXZT+/xwec6Hl0/gfMnt2KddSnUyxgTiRO0RMtZvydZvH2OVw8u4NblYziyZTymNk6OvLHSIWPRyZh+znCSJZjtpDg4pfQSKIuW6l3Zs2XDyBEjZDwOrZhVq1d/FRGhnirHYfztZV8PlJW6eDGTXLpx75wAXKlSJSxYuFCUrjT8PxiD1elidPyqqp8qTSpFtN1wRFm6JOKveLoXlzYPRcU2M9Bgkhvuv/n0Vytu+b9gDHY7mjVvJjWu/Ntz5sop8/jOnTur9oOmCRKIP5f4wjs8dWiA/nmjIUXi5mg6IxgkGxSP9+G4VSaUi5cSGYpMxpSzxiFZglUHtGg5l4oi4lxAuXPngs24cSK3x9ObhfiBC8tu1iw8CWcqUyEB214XLZyPihXKi+xf9GjRUbF8eSxZsuSbRgMd/BQj78YJh7GYNqI/+g8YjEFDbTFtwQkc9PwIxR3/FFhVQIuWkpqBSm9p0qVB9+5dcejgQbx5q/tAPnra4eCMSjAfswzd9/ji1V98Jr/w85cGDmpBJ0ykC61Jo8HI4bhw3u2fr8r5Hn+OZN8+xs3ldWCZJzqSJ2qBZjNDRrLvbzhiT/8MKB03tZDsVCOSLMFMMsu72LDAqgOKoOTNl0+GRjJc0KJlSym05n0DBgzAZWXl6ltpQEELWsjULWWtIBNrFK/mxZ85z4z3UWnImDEuvt0HDx5KvLV8OZ3YC6sIqBy/ZNGi7whWfTOf/eH//CQu7hkF236lUKu4CUyyp0fG1CbIbNoOTa12YteFl3il3uK/lBrjME8hWmXRBg7ypD5Gly5dceTkKUW0z3HbYSgWtS2A3nO3YsUttfz/UjP2hVqHOxTBNmvaDAkSJBRx9py5cmDEiGHKADmvhQh+gD9Gsl9ePcC1pbXRPbd+JPvm6mbs7JsBpUKJZAldbeQRdO7UWcSAoykLj9NYWYXQVC0ylu8kTJhIiJhjjUN6gpMwOYvovJubhChWrVwJOzs7TJw4URSKSOgTJoyH7SxbLF+xUsZinHM7J3O2jEG2JNjFixehYsXy0mjACQEc77Fo4QLcu3sn4FEB+PxUuby7sG//UkxbuQortm/ATqeN2LBuHKYPrIjyeZMjRY5yqDt2N5zvKm/gHytAoPdDyzVwrZBoU6VKhz4DFdEeXY5t/ftjaME2mLrOFaeVFfs3UhGnFDttc0KzJk2RLKlu0i9zE8OtrWUNayJLP4ZGsj8ALdLABUPiPHr4qGweCoXQ0uOUzYIFC0lmOV68+KhXvz52794drEXGulz299NKXrJ0CUaPGonOnTuhTu3aKF2qFPLkySOdZ0ymUGqPU3pz5c6FEiVKopZ6TMdOHTFC/c5CZWnu3rVb17r6W53T/wendS5ZslQGDjJEEDVaNJiVMZPE173/azR4i9fPLuLegaXYsnYtVh65jYtfw42+eHdnFZYONEXRdNGQxNwK3bb74MGbf4xlFd4r7+eACy3aTkibRpcMy5QtBSwta2FaZyvM7+aA454+YOOoPp/O+3dvRceXk0SOnTiBXXt2Y/PmTVi7ZjVWLF8uF0XUN23aLGpiHLXE0e0PHj3EewMJkCN9eMg3a9ZcLFgdwZpIDJZ1sPTGNPwYGsl+BxKsr+9znDlzGvv375Me/FPK5Zs/fz6qV68mwsKsjYwVM5a4SiTdMmZmWLZ0qYxj+RkYu7tx4wacnJyVazUK1WvUQJasWdTzJZC5Uszkc+hgnDhxg1y6Kayx4+ru42P42AQJ4otea6WKlWBlNRSOW7fi6tWrshGCE7J47P0YS5ctQ0VFsExysVWWkz85weD2ne8sWIEvnt11h+vGffA8dAmv33/+7nt6Dq9tAzCmQiKkLNUSFeZcxrXnEawhP5gIrDro2rmzjKSPEiWSOjBToVO7jtjltBe+fmy5CT7evnkj3s5lRZa7dzpjlu0M9OnXD01btEDlqlVQqFABZMuaGenVoZxOXVS0KlSoMMyrmqNV61boN6A/7ObMUYS8RwjXWz1XSJO0NAz27N4rz8eRMRQHMsmhCHYYG3Y09brfQSPZ78BOLrdzZzHUagjKlSuLKpUrixRe+44dlCVZBxmVlclTPPDSNS5kxYjhw3FTkagEOr8BJQLvKItjI/r17Yvy5SogQ4aMaqH+NzqbM6U4FqdYieKizVqnjgUaNGgol4WFhdpMlVG8ZHFky55VkbJOcCPwYi99mTJlpK9+rf063Lh1Cx8///xTZKhh+fJl8ncxRMDnKG1WSuZded25HfCo7/EWb1744OF1b7x6+mNFrWcuNlhQMzHyVmmHWkvv4rrfv2fJBuLV61c4ePAAuigPJWUKnQBRZpNsGDx8IFxPHcf7XzQsBIKdhnfU98Ew0oTx49GiWVOYqYOQM8g4rype/PiIyUaRyP+thcBLjIBYsZEwUSKkSp1KeUK5lZdSBi1btMTkSZOwX3lRrCYJTsiJB/fOHbvU77IjUldBkT1HdlgNs5bQlVZF8HtoJPsd6PIfP3YMbdSpHVdZj4ELN0mypMiUOSuSJtMttKBXArXg2cRAVX3K5wWCSazDhw9h/DgbGfbGWkI+Pkb06EivyNFMWcAtWrTCkCFDZXzxipUrFBlvwc6du0QlbN8+F6ly2Oy4GStWrcAMZcVYD7NCu/btRE+AYQta0nxOWrrlylfA8JEjsWffXng/eRzwLv4DBw7SgpUQgdqIrCLgGG9OOTBMi+AhLu8ch6GNqqPtoPlYdOYNnv7je09n0e5Hp04dv9bRZsiYQWQS2YLLROePwPXH2VXOO5wxZuxo1Ktr8VVUnBetyMSJEyFbtiwoWrQYypYrJ2LjLLerXLmS8m4qqIO8rNyXLXs2GZ9N0g38/cyZM6NRw4aYNGGCIvBdEhr6/JNcAicaSDljsxZqjetCBNlMsooBcs7N7Y9NGvjboJHsd6C7fUtZg/PnzVeLsZEIT6dPlx5JEidRRBZXtFQDF2zQq6Ja5BzM9yagNvLBgwdwcHBAK+XW0Y2j1ciJnCTGmjVqwFq5+RxBfP78BakiYKiBVgM339u376S6gVlr/svbXr56KY956vNUKhkcHbeIRFxtZV1nyZxF3hcJlxM66zdsgJWKlO/d9vpqWdPlZAyYIYLYcWLLe+YQwXlz58i0A30rIxhK+PTYCVtWzkDbweuxapeXlCd9/ncN2a9giMjFZZ8i2g5IpaxPxr7peXDMDae3fk+0/P453I8TVGvVqiltuzw8OaSS41k4N62qeVV07twR49TBvUwdmBs2bMCWLZuxbZsjnJwcsXXrZmzc4IClS5fCRj2GBzLJ1zRPHgl1RVNrMK5ax+xQq6PWzizbmVJ29b3uApXFmGdorYyHwCRX1mxZMXjIIBmRrs3GCz40kv0BGIO6eeOWTFFYs2YNbMbaoEO79jBX1mjRIkVEQIYD9mIqlyyQZHPnzoMFCxeJO06SnjdvHqpXq/bVemUHGee7T5wwUaxTzr3y9fUNeMWQ4+XLFxKH3bNnL6ZMmSphBW5kvlZstTGrqI01W1m+HhfOq8ddxkplJeumyupm1JcsVRKzZ8/BbWU16Y8b8PVYhU3DuqJf+/GwXn0HN38elv4nwc4vxvY7duiAlAECRKxK6dO3D06cOKE2gu5xnOa7ceNGdOnUWZKfgd9T6tRpULFiZZneIcnOPbslX3Dz5s2vhzMtTr4OL64Lf3Ub67aZAzjpelJ5RjuwWP1uT2VF03tKERDCoCeTL19e9LS0hLOzE549002w4OG+W62rVi1bI3kAwbLzcciQIeq1z0iCT0PwoZHsb0D37d7dezipNoSjshgWzJ+HMWNGi+Rdteo1JN7FqoMyZcpi/LjxysLcKqRXskQJccljxowh9bW0Xjjr6MH9b0WujYFHjx6rTeKMgQMHokiRopIgix4tKooVKYzBA/sri3e4ItiqkjDjfYzt8RDQr5PrPd6/vI1bJzbjsEM/TOpeHKUSZETutPXQc9xabLvojfvKKNLbMI6AoMXqsk9ZtIpo0yjrlKTFChLWVx87egyenp5YtnSZOpSrI676fng/668rV6wCq6HWinw3wd3DAy+UpasvaCW7u59XRsNqDB7MfEN5SWLxtWgIcAbXGvvVuHTpIvbu2Yf27TogQYAWQdZsWTB46CCcO/ut4LaG4EEj2WCCGVQu1GfPfKRDijKImzc7wnbWLIwYNQpWVtYYNHCQOv1bIW/efIgZI6YU9zN5Nn36dOkU4++HFljGxSmfc+fOk/gvR3Qz9psubWpkzJhe/V9XqVC+fHmZu0ULVr8QwTM8u26PZc0rwcIkJdInU39npMiIFikhUmfNj1J9lmLa0dd4phk734BKVfv27kXHju2RMmVycdtNTHKgTes2YmFytDoPQCE1k6zo2q0rHNY54NqVa2KpctqqoWCii5bvtWvXsH69Azoo0mfCla9Jwq1cpZJ0qjVt0hSZM2WW2xnXHTKUo5lctSSXnviDJPsYN5bWgaUi2RSKZFvMOoUL6vbgnpNvrzpijyJZdnyJdoGbN8J6XN8L/5d48PChlD1t3+GMtm3bfB0jHT9efNSuVUtqFw1zyUMGxoLt7e3RsGHDr+PPA69SpUpj9uzZBr6fF3j58BD2TRkNmy690bNJM7QpmQ054wW8TtrGMLc6juM+7zgHQEMQMK5+8KCLzD+j9kXMmLGQLFmyr9OTYymvh7XKk6ZMgutpV/g+1z+c9Dv4+fnj2PFjsLGxQfHixaWUL3oMtRdTJJf8Awcf5i+QH8OGDcPZc2cUQWuNBvrij5Esvnjj1hplyZrGUJZsGzS1dYd7wF3BwZe7jtg9KANKxkuL9EVmYur5lwi9JflrMJPMJBfjnNwsdMvr1q2LDRsc4PMHJrU+V5tz69ZtaN68pbidfE9M2rVq3VbmVX38aKhV9EWqKD6/+4SPVzxwc9kY2NQ1Qfq4kZRFmx05K87EgqvP8STg0Rr+A9tO2YjCjsHEiRPrDiaumYQJUKt2TSxfsUzkJsMCHA908+YNzJs3V/INCQOaDHgxQde7d28Zjf7pFyWB/4+3+OB/Hw+vX8HVy5clSXv5sheu3nqOR76f/8pON0Px50j2sydOr66EZopkE8Zvjeqjz8MlBDXNr+4sxeqBqZEvflqkyDsdQ/f5wyvgvrDEZ7UAWabFyQqJEiVE5CiRYW5eFevW2Uto4U/B19cPjo7b0EBZtHHjx0OMGDFRrVoNbN7iKBoIRoXPHVzbPAJja8RBtsgxkKrQIAw/4o3/5r5qCAqGdXr17IWUAYlKJlBrW1jAfv06PH5siCpyyMGQEUe9L1+6DNXMzSXExffEUi9WJ7DsLyT48uyw2tf9YF2nIszNzGBmVh5lyrRBtWYLMHz5ZZx99u/FdMOWZD+rzf3YFWedF8JmZGs0q54QqWPw5MyCxAXao/6IubDedBZHvH4yxuP9I7y57Iwtyyajv2U5VMwfCVF58kYrg9x1B6Lz7A2Ye/AO7vgZHr8KDthye/HSRXXi9/oqdVe0aFEsXLQQ3t7/X6ca1qCwzOrVq1GuQnlxTTn8r3sPS5noYEyhGcHTA/CcXBxVUsZDEtNu6L39ASKCyq6xwTlYLPWrXau2xMjZVFC9Rk3Yr1uPp39Q/P3h/QfStcg627hx40i5VytlOByWaQ/BGenuDzw6hJ3zWqNJoRiIz335zVUY6csOQIeZB7Hjoi9+PagnYiFsSfaTcugvr8C64XWQN1dmZMqUDunSpkGaNOmRLoP6fwFzZO21DnNO/GQs8KtL8N09Av2alECWLBmRMUNa6RFPkzYj0mfKgsyVeqDqTFe43g+bNj+2py5QhJo/f35ZSKwyoLDLTa9bAY/487irrJQpU6ciR86c0p2WI0cOzJxpi/v3jDyn690FvNjcDQ3yF0Tigv1gtfcBbgTcpUEHJk+pJ9C9Rw/pBGOZllmZsli2YqVaS6GZtg0e2JgwZ44dihUrIok5djcOGjIUHh4eAY/4OT75nMVj++7oYJ4DiVKkQApldNDwSJ4sKRIrTypm5GhqjyRG1KxtUX+iC1yVIfTxH6lACVuS/fJOmVeeuHJ0C5YvW47lK9djncMmbNxoj/VrlmHFqg1YvP8K3B7+5OT84IN3XkdxwGktlixdhVVrNsJh4wZsdFiNtSuWYJnDPmw4+wiPXoa+JctulyNHj4jmLLPCCRIkQOtWLXHs2NFw1QnDuNvp06dFwT9JksSyeerWrSfDI43ac/7BHe93D0b9qk2RzmIOlrj7yCRWDf+Bojy2tjORxzQPInOKQPbsGGszDrfvhBdR9C9SwsXRMWxWoOGQP19+LF28GP6/rOl+j8fHVmNL+0pqbTVDrdELMW+92tebNmGTw0ossumOFoUyIJFYtCmQsd5ITDn5GneCYyBHAPy5mOxfjifKtZsxc6ZsFC7GkiVLKNd8pUENBqEFlgBtVIdRxcoVZWYXkxrjxo2XLrBg4csTPL9xHEfYVbT9IE5d98HjoMnmT09w58RCbLBpCvOOo9Bo3jmce/6P7KBggp17Lgdc0KBBA3XQRRVhILbcnj5z2oBuO+OD75PynhzrHUsZDywDbNu6NU6fOvXjENMXdVC/cYeH42xM7jIao+ftxd7voh6fH53HgVn90aNIGiSPEwlxizZE2/V+OBcyrZy/FhrJ6gHKxrkq65DJrhgxoot4N4foeXqEpD4ibHH9xnUMtR6K5ClTiHpY4yaNpePo99asIoBPF3DJoS+6Fc6CAiZlUG/IUsze64WL3r54/tQHD8/twtKx3dCyWSO0s9uMDfc/wF/rRvgGt7y8MGHiJGTNmk0O5RIliktjAOtnwxue+/lhwcIFKFiokHg+pqamYoH/8FD+5A88dYbHsc1Ytu0+jl390Wj+T/hwZwdOTjBHsbRREatgc3Rx9INH+PvTQwUayeoBCr9Qt7N4sWLSj16kSGGsXLlcWYzhdzQeR1Xbr7OXMjMKhpjmM5WN5P3kd7FARZZf7uOm82D0yx4JienyJc6OTMWqo5JFC9RvOAztutmiz5BFmDrbCS6XH4R5vXJ4BxsJ9rscQMNGjUVjglUFgwcPwpUrlwMeEf7gdt4N3bt3l/FLDIfVa9QQJ11dA+4Ngi/KY3l1BT5P7uDaM+Dlz/Kpz/bAfVotFEuaE6nLj8a0i6/w8B+p59JIVg9cv3YVgwcNROpUqcTta9umDU6ePCHxz/AKuqSMzXbp0ll0FFhuxjjtBXe2gPweL+64YN+4ZuhlbobSpUqgRLGiKFqkPIqW6oHa3R0we/Mj3Avb6qO/Avzcnzx9ilmz7JAzV26xYsuWLQtHR8dQ7QA0FH5+vjKpgwJJfM858uQWlTh93/MXj7lw6p8fhXI0Rbne+3Ho1Yd/pllFI1k9cOjQAdSoXk3c7kyZMmKcjU2YdnXpC7p7c2bbIW9eU7FmKRZCubvgxAQ/f3yFV963cO/aJVz0uAD38+fgdu48zrpdh+eNZ3js9yVQ60RDEFD7ws3NDZ06dUbcuPGUVRhHHXRdZLpBaMOQ70N3KJ9BixYtpRuMTS1DlGFx5bJ+1vfTXdZY2jkLqnaagP6Ofnj6r5QWKGgkG0JQqd7efi1MTfPICV9GWSVUT/peKi6koBXMwYUuLvulU4zPGXixm2yDwwYRE+FgRX0TJdzw+/btFRk9vvdsWbNhxbLlBr/3fwmf1WfPZg6f58/xJhhqVBSH2bljJ8zNzSW+mTt3bsyeMwc+z5RvHQrg2qCiF0cceXndltHd+h5/d+/dl+oHitnEiR0btWvUwJ7duwPuDS4+qA/tMg6M6YpuxSqi05wd2PZYvc9/qCdBI9kQgmU406fPkIXHOkdOrT31o1hVCPHy1SuZY9+qVQupVChVqtTXi73lZqXNMGL4CFy+fMWgsARrHjt27CDas6wxpnjz/TBq4/zbQQJ79PAhXA4cwIpVq7DFaRuuXb/+y0PKx8cHy5YtReHChZQlG1emXuxSRGXozK3v8VKRKeUPjx07hu3bndS1Xa3L0yKHqC/J+vr5Yb064MuVL4+oUaIgV46cWLx4CT6EQKzm8/u78D85HbbNu6BBZTvMO3ALxtehC9/QSDaEuHLlKoYMsULKlKmk97x37z5CfIaCVsOkSZOlnZEWT9CLYQnKzlFeka+vryVLsFd9wID+SJokiYgx9+7VSxTCNPweHBZ47OgR9O/fTzyYchUrYMjQodizdw+e+/64gebWrZsYO2Y00qdPJ11UDBucOXvWoO/wezx94o0dztsxcvhwUfSioPe2bdtw9do1Obz1BTsaT585gxatWsmgzaRqvYwZM1ZZ4T9pFvo/fIHfjX3YM7gFRnQaBpvN93De732wlfYiCjSSDSHOnnNDt249JHmULn16jBo9WtwyQ8D6w9OnXSXjzJHjOXPlki6yfPnyIUcOE+nSov7nTNtZ4goaAnaAsSed3Tzx48dHsyZNcPjw4YB7NfwKFMU5oSzFzp06qkNKp3DG0TL1G9SH3Ww7nDrl+n910jzAunbtIq2qyZIlxaBBg0Rs3RggCXJa8Zw5s9G8aVPRHiDJrlq1EhcvXpT6aEOTsffu30f/gQMRR1nhjCf36tUbN27eCt4h4e2Ja5unY2zPsbBZ6oKzyng3smrGXwGNZEMIbiTqcNKKlRZVW1uROzQEzORucLBHT8tuUqA+1MpKNGhnzZolAuAzZsyQCQ0Ubv7wwbAurcePvdWmnAvTvHmlNKe62pic46QheODEgbWr16BB/foyEp5TKBh6yaUOxk6du2Dd+vVSE8vpAsSxY8fRsEEDKfXLlCkDJk4cL3rEhkKnm3EJo8eMQbFiReVA7tGjh0xhYEjLWNoUDBmMGz9OeW4pEDtWLFn77u7uvyHvD/jy4j7u7VwAB9upGOVwFRtv/psKXIRGsiEEC/jbtm0rJFtAWZuLlyyWuJchuHXLS7lho1CnTk3livaVabIuLi44f8Fdufe3hBhZm8tuHEPh4/MMK1auRIniJSRrbFa6NBwUMTApRtBC4QbSrv+/+NmQvO4pkuSwy8FDhqB4iZKIETDMkvWvZcuWw/CRo+By8BAeKrKj216pAgdXRkKhwgXUelmovkvDhWA44mjqlCnSKJA8RXI0bdZMvaedYr0aExSHoQZxtmzZJKbMBhyRP/xVXNb3Mnz2jILdJGtYzjuKrde+4NG/FiMIAo1kQ4ijR4+KOhGFjYsWLSKumY8Bkobv33/AkcPH0KRxE7F0KlYsj86dO8F6mDXmzJ2nNutBPDWiZCK1Ztc5OKCC2vgcKc224EGDB8N5xw4cOnwYe/buxe49e7TrB9cedR04cACHjxzG3n37MG/BArUW2iC7iYnEzkm0UrWR3QQt1e1Tp03DwAH9kTtXTvVZx0DFqpXhsHmjjAw3BExyrbO3l2kK0aJFR3F1YHIcvFG1KALA9blsyVIUyFdA9DlatGghwx4DD+X/g/8D+J3YiP2LRmPy6j1YdU3qC77Bl8fKyj3oiuu3H4rmcETnX41kQwj2dbds2VIs2SKKZFcaSLLPlGW5atUamRzL2lW26bJcJl78eMicJbNMnp2/aAFu3LpplGTJc19frN+4AVXMqyJ6jBgSa2P7ZL169aRfvVGjRjJVgTq0gRf///31o/uD3hb0+tnvBb3/+///6nd+dF/Q///o/l/d/v31s8fx/40bN0YzZTVyDbRq1UoGWOYvUECSWoEky++RVh+tPxOT7Oq++PJ9Vq9TB47bt+N1sKQDfwxa0ufdzsHSsoc66BMjXtz4kkxzdeX0go9fLW5j4eOHj1i9YhWKFSqKRAkTyd/+03bstz54smsuNowejIFjN2HxLi/c8fbDcz9/vPD3k9E3fn43cWLFcsxpb4NVO1xxUf2acesswh80kg0hThw/ijZtWiFxooTIFxgueKp/uOC2lxemTp6MwgULyujnwI0aeMVPEE+5pCUwacpkEXv+pZsWDFBjds3aNahUWbmwUXTz+GMpKytxokRIliQJkioLnZtXu35+sTKDk2ezKxLNlzevjJIhyZJcv//+Aq94ygqsXdcCW52dDSJZjo1ZvWo1SpcuLdKVLMPr16cvdjrvVGvzmFjaHDPPWKoxQJJdpV6vaJGgJHvy/0n23X34H5oK27ZFUVpZ7tkK10fV+p3Ro3M7tG/bRu2ZwKsRqlVujuL1p2Ph/hsyl0+zZDV8g9OuJ9CxQzshJRMjJL5u376FJYsXoGuXTqhfrz6qV6uB4sWKI3269KKCFLhJixQpIhNm2YxgCCgmzom7TJaQZDkqxzRPTpQpVRLllftZtlRp9XMp7frJVVaRW8Vy5VCtShV1VZWpxFKsHyfOt6QaL566PSPSp033tdOrStXK2KC8CEPaab287mDYsOEyKpwkm0sRWv++/bBk4SJMGGcj+YI+ffti05YtslZo2RoCkumSZUvFoNCFC5orq/kUPgTO/Pr8Hh8fu+PK1pGY0jgNMsf+7zP46ZWkNDIMPw6nm8YPb4RHaCQbQrjRVevR7WsJ15gxY+BlQEstR9ScO3caLvv3Yc/uPdi21Um0docMGoLyFSshUSLdHCg2PjAW7Hb+fMBv6geWcI0fP15c2dhxdOPBx4weifVr12ILu8vs7bGel/r/1+v72wL///3jfnd9/3tB/x/09qD3/ej/39/3s/uDXr+6/fsr6O3f/bxx/Xps3bxZPqvZtrNk2mzOnDlF+CWQRDgcsXr16hhmbY3evXojf74CiB4tOooUKoTFixZJg4K+OK++//btO0gslq9VpGhRGUW/ccMG0dPImi0rkqVIJmVl1EdgwtQQsGNNEl/ZAxJfyos7q9br17lfH/zw+tg0LO2RH6ZpYiJW9O8I9QdXslKt0XajD9zCr56SUaGRbAjBusShQ4ZI+U5iRbT9+veXom99wZIsWjYc6f32zVu8fPEST7yfwMPdAytXrUGjxk2+DtwrZWaGbTucgzkO5Me4fv06+qv3zEm2PCh6WPYQcRs/X1+8Uu+D4sz8Wbv+//JXLvib12+UN/BEkoTjbMahirJmA+OxtPQ4fsiyh6W0QjO8w4x/vfr1EC1qVGTOmAkTJkyQCQT6gAMwDx8+AguLel8Jq7J6fY6u4bpcsWI5ihYvJrcnSZpESrpIyobghb8/JqhDORVLuJRn1aFje7h7XPgv7vvpNd5d24nD9hMxZuw42EyYjMmTf30t3LAHR+9+wfN/pLVWI9kQgmU506ZNQ4aMGaQ+kpMR2FZrzGRDIBh/Y91lpUoVxVIqpDbwGrWhfNXt+uL8hQto166dPB/Fu6dOnw5vA0vQ/iX4vfDHHpf96N2vHwoULCjESvKhDkTjRo1gZ2eHc2fPyaFJXFMHsGWvHogXL6502A0YOFAIUR+w9nb//v3KStZpT/Bim+7+/S6S7b90+ZI0IyRLnkzuK1W6FBy3OoZw2ux/4Ipmy/UA9bcyHMK/s1fvXtLFpiH40Eg2hGCf+lrlOuYx1cnWlS9fXkRcAjeVsUHLc+SI4WoTZxXVrE0bN+tdC0lxk/0HDqB2nTry3rNnN8HKlavwNqBwXsPv8AWuZ06hT/++4pYzhEOSrVSpkrjsLooAHz58+E1504MHD6TNNUOG9GLxduyo/zQEPu+hQ4fU92fxlWRr1aqFPXv2yn2PHj1UrzUWGZUBwPty58mN5cq6pZawPqC+AvUPmjdvgSjKEk+SJAnGjBktyVMNwYdGsiEEN8eBgwdhXr0aIkWJjCyZM2PiRLqA+nXxvFKkzcJyFnhfvXoFb78LBdBNpa5npQoV0KhBQxw+eFjvesinT59g3vz5ksTgJixZsiScnXfg82fjW+ERERz/fvzYUfTt01sEX4oXKyodelRlu3njJj4GIddAiEDM0qUoVKigWIM84Fhz+0GPjiwmsbhOKD8YOZKukoHqXttYFqbWEeP7trYzJH7K+9iFxsaW79dUcMGx8vbr1sGsTBmpnGDsmdU0P62R1fBDaCSrBy4rd6+fcvuSJE0q9Y9t2rbByVMn9SqvunP3LlasWIG+ffti2PBhcN7pjEeP/7OGHty/j1XLV6JDuw4YO3oMbl7XbwYsD4czrqfQpXNnJFYWCTd8+3btZNNqCD7oPu9UB9Ps2XaKwJbCze0sXr78uWdB8mPbcvVq1SREw3bmueqge6ZnQsrLywvWVtZInlQXEihZqpQoZfF1GD+dOXOG1FfzPiq4bXV0xGc9y/6okTxm7GixjNkdWKt2bWlW0RAyaCSrB+guLV+xEkWKFJVOn2LFimHV6lV6leZ4enqKaAh1RtOmS4dqNaora3Murl67Cn+1aRjfWzh/IaZPm4m9e/fprar07s0bqRwoU7o0oik3N3/+fFigNru3tzbOICT4oLwIX0WQDx8+UFbqE3Ww/toiZYMARbs5hYLZeTZ/dOnaVUS79fEguMY2smOvXDlJpjFsQX1aFvrzfY23GYc0adLIIdq2bTsR3tYXp8+eRstWLRBTHQ4i2j1kMK7qGU/+l6GRrB7gxmFrIct3eMLrJA97S0IjpLG2O3fuYO7cuaimLJ3kyVMguVrMtWvXwuJFC6UekdlklnWdOOkqY0z0cez5lrxu3oL10KEyD5/Sic2aNpGqgo8ftXhsaILrgYlFW7tZyJErZ0CYphQcNmzU61Dm8926cQM2Y8ciV85copfAWVzswjp+7Di6de0mcpmlzUorQ2AFnjzRr66aB/zK1StRuEhhec95lQW+etUq6dzSEDJoJKsnOMqFVQbs9mG8ig0Ea1atxvNga23qwLAAxZZZ8tO3bz80aNAQLVu0wKSJE7BzhzMuuLvj9t27ePVaf5E4VikwYVa5UiVEVhsmVaqUIkjDUISG0IfE8Q8fQtPmTRE3XjykTp1aqgwoR6gPeMhT3WvQoMEiqN2kSRPMsrNT12x06NAJjdX/p82YjptewZQk/A6M/fKA5zw4GhBRo0ZB06aNcerUKd2JrSFE0EhWT3z8+EFaGDlam64ZO3w6tGuP066nAx4RfHAjMATBTXfkyFEccHHBmdOuUipDfVJ9kiRB4e5+AT179hQNVMYFq9eoDienbXon0DSEHHfu3cWkKZOQ3SSbdGqVKFlSqlT07f7i71244IElS5dixKhRGG1jgzHjJ2DGzFkyYYOxW31bsBl6WLRwAQrkyyeHcu7cuWBn95OR4Bp+C41kDQAX3fwF81CwgC5bnz1rNkycMBH3H4SfARtso7W1tYVpXlN5j8w4T5s+TcIUYYs3+OjjgcuHd2Ovk5MieV4ucN57CScvv4RPBBcbff3mNfa77EWDhvXUQRddDuV27TvoaqwDHqMPOCvs+MlTcNzmhG3OyvPx8MBbAyQx2Rxz9OgRtGrZEjFjxBSxog7t2+HMmV8ob2n4JTSSNQB0q86fPwfL7t1EMCZ6tGgiP7dyxQqRFPzT8PP1wzr7dahSpYo0TsjGVtb2SeX26Wvl6IdPeP/kII4u64jeZiYwTZVKOuZSpS6CjHl7onZfJ6x0fQLvsHxLYY4vePjoAWbOnI68efMgSuTIyJIlq7Q4c/qAIWCTwgtl2dK6NZQIL126iOHDh6n3lkUO5YIFCiqrdqHyqAxrz/2XoZGsgXj16iW2K9e7Tp3aIh1I9XgWiG/ZskWSB38K3HDO250lxsusNjPRVStXhcN6B3EHww6vgEf7sWduK1TNEwPx1cbl5v3vSo6o6auiVOs5GLv1Bm6/jrgmLQ+28+fdRKYwUaJE8veXNjPDMnUoexug5GYsUOho9pzZUgPM98bROqx8YYu3ForVHxrJGgGcu7Vk6RKUKFVKBs4xRtugQQNs3boVvn5hb9HSqtm5a5cILFNghom5woUKYY7dHL2bJvTFR78reLquFwZZ5EWCTHmQq3AxFCteHMWLF0PhvNmQMXFsRCHZRi+G7M3nYoX7c/hH4NABGwM4LaFGjRpSmcIYebVq1bF23Top/v9T4BpetmI5KleuLIkuigc1a95cJnRQJEaD/tBI1ghg4ur6zZuYOGUK8gZ0U9E1pzCIw4b10mkVVmCijImPQGFxvhcTkxwYNXIULl28JCGOsMN7PLu0E07dG6Jjw7ZobrcVDicuSMWEu/s5nHBaiMltqqBwVFq0MRA3rwXar7mBUxHcM+UMrsWLF8OsjJl8PzyUa9WuAweHjX+EaJ888caatauli5HkyvdUrkJ5rFq92iBBeg06aCRrJHxS5HXxyhWMGWcjjQVcqLFjx4J5taoyTZRNBx8+hJ6J9kW5oteuXMWSxUtQt25dJApQhqKk4dChQ3HunBs4SiTsoMj8tQfunliK2dZ2mDDnAI6q/frNJ/DlOe4cWI4VbUuiUJpIiJbeFBWnuMP5H0hiM/E403YG8uXPq1srsWKjZs1aWLFiJbxuewU8KnRBLQsK2MybNxcVKUIUUyfXyCabOXPnhrnXE1GhkawRwUXrcdFDRm5zpDddQQpj582bD4MGDsKe3XtFMMQYAxEDwWyw9+PHOHTgIEZaj0AxtUGoXUrxkpy5c8HKygpnzpz5A5nhT4D/UTy8uA2ORx/j+M+6gV97wndzV7TIFx8xMlZE/UWXcOQfyLHQ+7l67QomTZqAAgXzy/fFq0yZMpiiPKJz587hxS/adQ0BX9vP3w/HT5yQabeFC+kaDrheS5QogZkzbUVPQ4NxoJGskUHFeHZ+cYx3mTJlETWKbsAeC9A59WDChIk4fPiwuIyG1KmSNOnmnTp1ArYzZ8qMrnRp0yFK5ChSh8m4p8348eKaG5PUg48v6k0+wduXj+H9Cnj5s8qBF6fxYFUL1MuaB8nzDsTwQ/fh9Y9UCrEl98rVK5gybSqKKnLjOpHDMWdOdO7cRdTdbnvdNur3x5gwrVeGAlq3bSNtuVwvfO0yZmWU1zUHd+/eCeOwUsSGRrKhBIprLF++XLpxMmbMKIuYV7Zs2eW2UaNGwN7eXrpoOK2AsVSKfLDxIGiXDn9mhw/l6vz8fMWFO3vmrCjhj7OxQatWLWBqmufrfKk0adOifv36mL9wIa6ozRTek8Kfb2/D6YmFUKNETRTtsAvb7r6C/pLkfycYz6d7TkUtygnye4wfPwEqV6qM4cOGKbLdAE9PD2lY0ccjea+8HeYFWNlgv3Yt+vXrJxZzYPyVrbkWFnWwZMkSWYsajAuNZEMR/solO3ToAIYNs5bBd8mTJ5d6VbpliZMkUtZmMXTp0gVTp07FqlWr4Lh1K/a5uMigurPKxed14uRJuBw4gG3bt2HNmtWYPm06enTvATNldfD5+Fx8zqRJk8jzsV1z957dBo04CTt8xLPji7C+iwkadeqLHo4+uPmPjCT5Ho+VZ7N50yZ07NBBtINZeUCrlqNsypUriwED+ots4f79+3D+wnlx558+eSI6xvSISL68aPW+fv1Kkao3bt68IeI0+/btw+LFi9CnTy+ULFlckrJ8bibccqsDunuP7ti+3ekvWTN/HzSSDWW8e/dWhLepTdCrV6+vZBspwPKk5UL9A2q8Fi9ZAlXMq6Fx4yZo17o12rVpI1avebVqKFmqJAoUKCCJLCrsRxYXLzISJU4i5VDdunVRJLxKQhWGzvUPGzB+4IkzC4aje94aaG+9CpueAa8jdEPCr8H65dOnXdVBOhW16tSSGXJcI7zYvJEvfz5l7VZFp86dMHr0aMxT1u/GDRuxd+8eHDp8UB3oB7Fn1y5R6Zo3bw5GjBguj+W8MVNTU6RImUJ5PJHU2omETJkzyhwwCtecPntGbyF4Db+HRrJhBMbCzp47p4hwDaytrWWOP0kzbdo0yjWMj6gBcbEoUaMpSyO+jOdOljSp3Ec5Rd7HkAAbCxjfNc2XD7Us6mLQkCFYuXIFXF1PSmPEX4PPPnhyfDqWd+2AZrXnY7rjVbDvSYsEQmQUnZydMGrMGNFw5cHK5oXA2CndfI4O4jjy8uXKSyNMw0YN0LBhA9SqWRPlypRB3rymSJMmtVitVF3jRe2KPHlyq8c2lGkNu3fvlnFKGkIXGsmGIRhbZdyV4h1Ux2ccbujQIWirLNbqyoItVaIkChUqhPwF8iOfIlFeBZSFy0YCZn3ZHtuyZQsMHDhQVJe279iJGzdvisvI5/578AlvH53AruFdMbbDAEzZ4YXTLz9qBBsEr9++wS21Tnbs3ImJEyeiY8cOqFK5smhPsDyPISLO3CKJcgROwoTqUv/yUOZBzPsYcmC4IU/u3Khmbo6unbsoK3mahJOY3PozCdF/DxrJ/iG8fvNG5kFduXIZrqdOwXn7dhkzs3DhAqmrtZ01S4Rd5syejUULFmCFum/rtm04cfKE9JdThEZfAe8/Du+reOg8E1Osp2PY4mM4ozzV1wF3afgWPJSZRGUYYdtWR9jOmIlePXuhadOmYsFWrVoVFSpUUBZtOZQvWxYV1c9V1G20gJs1ay5JLju1lpy2bsPZ02ckscXn1BB20Eg2nOCTskQ5PoRzmnx8norY8pMnT+Dz9CmeP3sGP3WfoZKHfx6fgGeeuLljPlZNm4xxGy9iwx3gjdYXHyxQXvPxo8fw9LyIY8eOSSx2u/N2ad923LwZjps2ybgZdvzRUzp+/DguX7osI+Y/hGkjioag0EhWQ9jh5T347hmJxVMHoMv8Y9h4+TP+P92iGPfLl3BfevYnQaEZVhS8fftGrFKGi169fKm71M+8jXoDfIxW7/rnoZGshrCB3134n9iCPYunY479Pjh6Kc4NuOsrfO/jhsMOuB52w3X133+tXlZDxIRGshpCH28f4YGzLVb0a4OOPWZh+KKTcHXzgIeHukQshtdJ7FqxACMaDMG0Oc7gDN2/qFZCg4afQiNZDaGLNw/hf2AcZrYxRY5USZE0dW5kzmOGsqVLonRJSh4GXkWQr1AFpKk5ESM3XgHlCyKw4qGGfwgayWoIJXzBl4en4OkwBKMskiNTDF1R/a+vVIhr6Yx5ntrsMQ0RBxrJagglfMbni2uxa2xlVCmcHunTpUHqNGmkQD5N6oDxM99dJmXqo+Oq6zjyLOApNGiIANBIVkMoQVmyz67izmknbHPchA2btwUMT/z5tfvQSXg8eAfff7i1VkPEg0ayGjRo0BCK0EhWgwYNGkIRGslq0KBBQyhCI1kNGjRoCEVoJKtBgwYNoQiNZDVo0KAhFKGRrAYNGjSEGoD/AYOnaUxZODOEAAAAAElFTkSuQmCC;" vertex="1" parent="1">
          <mxGeometry x="650" y="13" width="345" height="227" as="geometry" />
        </mxCell>
        <mxCell id="lOXssVLxFtPVB_tmpfgO-19" value="1" style="text;html=1;strokeColor=none;fillColor=none;align=center;verticalAlign=middle;whiteSpace=wrap;rounded=0;" vertex="1" parent="1">
          <mxGeometry x="190" y="170" width="30" height="20" as="geometry" />
        </mxCell>
        <mxCell id="lOXssVLxFtPVB_tmpfgO-21" value="2" style="text;html=1;strokeColor=none;fillColor=none;align=center;verticalAlign=middle;whiteSpace=wrap;rounded=0;" vertex="1" parent="1">
          <mxGeometry x="290" y="180" width="30" height="20" as="geometry" />
        </mxCell>
        <mxCell id="lOXssVLxFtPVB_tmpfgO-22" value="7" style="text;html=1;strokeColor=none;fillColor=none;align=center;verticalAlign=middle;whiteSpace=wrap;rounded=0;" vertex="1" parent="1">
          <mxGeometry x="240" y="210" width="30" height="20" as="geometry" />
        </mxCell>
        <mxCell id="lOXssVLxFtPVB_tmpfgO-24" value="11" style="text;html=1;strokeColor=none;fillColor=none;align=center;verticalAlign=middle;whiteSpace=wrap;rounded=0;" vertex="1" parent="1">
          <mxGeometry x="180" y="260" width="30" height="20" as="geometry" />
        </mxCell>
        <mxCell id="lOXssVLxFtPVB_tmpfgO-25" value="2" style="text;html=1;strokeColor=none;fillColor=none;align=center;verticalAlign=middle;whiteSpace=wrap;rounded=0;" vertex="1" parent="1">
          <mxGeometry x="320" y="310" width="30" height="20" as="geometry" />
        </mxCell>
        <mxCell id="lOXssVLxFtPVB_tmpfgO-26" value="3" style="text;html=1;strokeColor=none;fillColor=none;align=center;verticalAlign=middle;whiteSpace=wrap;rounded=0;" vertex="1" parent="1">
          <mxGeometry x="290" y="260" width="30" height="20" as="geometry" />
        </mxCell>
        <mxCell id="lOXssVLxFtPVB_tmpfgO-27" value="2" style="text;html=1;strokeColor=none;fillColor=none;align=center;verticalAlign=middle;whiteSpace=wrap;rounded=0;" vertex="1" parent="1">
          <mxGeometry x="460" y="260" width="30" height="20" as="geometry" />
        </mxCell>
        <mxCell id="lOXssVLxFtPVB_tmpfgO-28" value="7" style="text;html=1;strokeColor=none;fillColor=none;align=center;verticalAlign=middle;whiteSpace=wrap;rounded=0;" vertex="1" parent="1">
          <mxGeometry x="370" y="240" width="30" height="20" as="geometry" />
        </mxCell>
        <mxCell id="lOXssVLxFtPVB_tmpfgO-29" value="3" style="text;html=1;strokeColor=none;fillColor=none;align=center;verticalAlign=middle;whiteSpace=wrap;rounded=0;" vertex="1" parent="1">
          <mxGeometry x="450" y="170" width="30" height="20" as="geometry" />
        </mxCell>
        <mxCell id="lOXssVLxFtPVB_tmpfgO-30" value="11" style="text;html=1;strokeColor=none;fillColor=none;align=center;verticalAlign=middle;whiteSpace=wrap;rounded=0;" vertex="1" parent="1">
          <mxGeometry x="360" y="190" width="30" height="20" as="geometry" />
        </mxCell>
        <mxCell id="lOXssVLxFtPVB_tmpfgO-33" value="2" style="ellipse;whiteSpace=wrap;html=1;aspect=fixed;" vertex="1" parent="1">
          <mxGeometry x="150" y="460" width="50" height="50" as="geometry" />
        </mxCell>
        <mxCell id="lOXssVLxFtPVB_tmpfgO-34" style="rounded=0;orthogonalLoop=1;jettySize=auto;html=1;entryX=1;entryY=0;entryDx=0;entryDy=0;endArrow=none;endFill=0;strokeWidth=2;" edge="1" parent="1" source="lOXssVLxFtPVB_tmpfgO-36" target="lOXssVLxFtPVB_tmpfgO-33">
          <mxGeometry relative="1" as="geometry" />
        </mxCell>
        <mxCell id="lOXssVLxFtPVB_tmpfgO-36" value="0" style="ellipse;whiteSpace=wrap;html=1;aspect=fixed;" vertex="1" parent="1">
          <mxGeometry x="225" y="390" width="50" height="50" as="geometry" />
        </mxCell>
        <mxCell id="lOXssVLxFtPVB_tmpfgO-37" value="3" style="ellipse;whiteSpace=wrap;html=1;aspect=fixed;" vertex="1" parent="1">
          <mxGeometry x="305" y="460" width="50" height="50" as="geometry" />
        </mxCell>
        <mxCell id="lOXssVLxFtPVB_tmpfgO-39" value="1" style="ellipse;whiteSpace=wrap;html=1;aspect=fixed;" vertex="1" parent="1">
          <mxGeometry x="375" y="390" width="50" height="50" as="geometry" />
        </mxCell>
        <mxCell id="lOXssVLxFtPVB_tmpfgO-42" value="6" style="ellipse;whiteSpace=wrap;html=1;aspect=fixed;" vertex="1" parent="1">
          <mxGeometry x="395" y="540" width="50" height="50" as="geometry" />
        </mxCell>
        <mxCell id="lOXssVLxFtPVB_tmpfgO-83" style="rounded=0;orthogonalLoop=1;jettySize=auto;html=1;strokeWidth=2;endArrow=none;endFill=0;" edge="1" parent="1" source="lOXssVLxFtPVB_tmpfgO-45" target="lOXssVLxFtPVB_tmpfgO-42">
          <mxGeometry relative="1" as="geometry" />
        </mxCell>
        <mxCell id="lOXssVLxFtPVB_tmpfgO-45" value="5" style="ellipse;whiteSpace=wrap;html=1;aspect=fixed;" vertex="1" parent="1">
          <mxGeometry x="215" y="540" width="50" height="50" as="geometry" />
        </mxCell>
        <mxCell id="lOXssVLxFtPVB_tmpfgO-47" value="4" style="ellipse;whiteSpace=wrap;html=1;aspect=fixed;" vertex="1" parent="1">
          <mxGeometry x="455" y="460" width="50" height="50" as="geometry" />
        </mxCell>
        <mxCell id="lOXssVLxFtPVB_tmpfgO-58" style="rounded=0;orthogonalLoop=1;jettySize=auto;html=1;endArrow=none;endFill=0;strokeWidth=2;" edge="1" parent="1" source="lOXssVLxFtPVB_tmpfgO-60" target="lOXssVLxFtPVB_tmpfgO-64">
          <mxGeometry relative="1" as="geometry" />
        </mxCell>
        <mxCell id="lOXssVLxFtPVB_tmpfgO-59" style="rounded=0;orthogonalLoop=1;jettySize=auto;html=1;endArrow=none;endFill=0;strokeWidth=2;" edge="1" parent="1" source="lOXssVLxFtPVB_tmpfgO-60" target="lOXssVLxFtPVB_tmpfgO-72">
          <mxGeometry relative="1" as="geometry" />
        </mxCell>
        <mxCell id="lOXssVLxFtPVB_tmpfgO-60" value="2" style="ellipse;whiteSpace=wrap;html=1;aspect=fixed;" vertex="1" parent="1">
          <mxGeometry x="650" y="320" width="50" height="50" as="geometry" />
        </mxCell>
        <mxCell id="lOXssVLxFtPVB_tmpfgO-61" style="rounded=0;orthogonalLoop=1;jettySize=auto;html=1;entryX=1;entryY=0;entryDx=0;entryDy=0;endArrow=none;endFill=0;strokeWidth=2;" edge="1" parent="1" source="lOXssVLxFtPVB_tmpfgO-63" target="lOXssVLxFtPVB_tmpfgO-60">
          <mxGeometry relative="1" as="geometry" />
        </mxCell>
        <mxCell id="lOXssVLxFtPVB_tmpfgO-62" style="rounded=0;orthogonalLoop=1;jettySize=auto;html=1;exitX=1;exitY=1;exitDx=0;exitDy=0;endArrow=none;endFill=0;strokeWidth=2;" edge="1" parent="1" source="lOXssVLxFtPVB_tmpfgO-63" target="lOXssVLxFtPVB_tmpfgO-64">
          <mxGeometry relative="1" as="geometry" />
        </mxCell>
        <mxCell id="lOXssVLxFtPVB_tmpfgO-63" value="0" style="ellipse;whiteSpace=wrap;html=1;aspect=fixed;" vertex="1" parent="1">
          <mxGeometry x="725" y="250" width="50" height="50" as="geometry" />
        </mxCell>
        <mxCell id="lOXssVLxFtPVB_tmpfgO-64" value="3" style="ellipse;whiteSpace=wrap;html=1;aspect=fixed;" vertex="1" parent="1">
          <mxGeometry x="805" y="320" width="50" height="50" as="geometry" />
        </mxCell>
        <mxCell id="lOXssVLxFtPVB_tmpfgO-65" style="rounded=0;orthogonalLoop=1;jettySize=auto;html=1;exitX=0;exitY=1;exitDx=0;exitDy=0;endArrow=none;endFill=0;strokeWidth=2;" edge="1" parent="1" source="lOXssVLxFtPVB_tmpfgO-66" target="lOXssVLxFtPVB_tmpfgO-64">
          <mxGeometry relative="1" as="geometry" />
        </mxCell>
        <mxCell id="lOXssVLxFtPVB_tmpfgO-66" value="1" style="ellipse;whiteSpace=wrap;html=1;aspect=fixed;" vertex="1" parent="1">
          <mxGeometry x="875" y="250" width="50" height="50" as="geometry" />
        </mxCell>
        <mxCell id="lOXssVLxFtPVB_tmpfgO-67" style="rounded=0;orthogonalLoop=1;jettySize=auto;html=1;endArrow=none;endFill=0;strokeWidth=2;" edge="1" parent="1" source="lOXssVLxFtPVB_tmpfgO-69" target="lOXssVLxFtPVB_tmpfgO-74">
          <mxGeometry relative="1" as="geometry" />
        </mxCell>
        <mxCell id="lOXssVLxFtPVB_tmpfgO-68" style="rounded=0;orthogonalLoop=1;jettySize=auto;html=1;exitX=0;exitY=0;exitDx=0;exitDy=0;entryX=1;entryY=1;entryDx=0;entryDy=0;endArrow=none;endFill=0;strokeWidth=2;" edge="1" parent="1" source="lOXssVLxFtPVB_tmpfgO-69" target="lOXssVLxFtPVB_tmpfgO-64">
          <mxGeometry relative="1" as="geometry" />
        </mxCell>
        <mxCell id="lOXssVLxFtPVB_tmpfgO-69" value="6" style="ellipse;whiteSpace=wrap;html=1;aspect=fixed;" vertex="1" parent="1">
          <mxGeometry x="895" y="400" width="50" height="50" as="geometry" />
        </mxCell>
        <mxCell id="lOXssVLxFtPVB_tmpfgO-70" style="rounded=0;orthogonalLoop=1;jettySize=auto;html=1;endArrow=none;endFill=0;strokeWidth=2;" edge="1" parent="1" source="lOXssVLxFtPVB_tmpfgO-72" target="lOXssVLxFtPVB_tmpfgO-69">
          <mxGeometry relative="1" as="geometry" />
        </mxCell>
        <mxCell id="lOXssVLxFtPVB_tmpfgO-71" style="rounded=0;orthogonalLoop=1;jettySize=auto;html=1;exitX=1;exitY=0;exitDx=0;exitDy=0;endArrow=none;endFill=0;strokeWidth=2;" edge="1" parent="1" source="lOXssVLxFtPVB_tmpfgO-72" target="lOXssVLxFtPVB_tmpfgO-64">
          <mxGeometry relative="1" as="geometry" />
        </mxCell>
        <mxCell id="lOXssVLxFtPVB_tmpfgO-72" value="5" style="ellipse;whiteSpace=wrap;html=1;aspect=fixed;" vertex="1" parent="1">
          <mxGeometry x="715" y="400" width="50" height="50" as="geometry" />
        </mxCell>
        <mxCell id="lOXssVLxFtPVB_tmpfgO-73" style="rounded=0;orthogonalLoop=1;jettySize=auto;html=1;exitX=0;exitY=0;exitDx=0;exitDy=0;entryX=1;entryY=1;entryDx=0;entryDy=0;endArrow=none;endFill=0;strokeWidth=2;" edge="1" parent="1" source="lOXssVLxFtPVB_tmpfgO-74" target="lOXssVLxFtPVB_tmpfgO-66">
          <mxGeometry relative="1" as="geometry" />
        </mxCell>
        <mxCell id="lOXssVLxFtPVB_tmpfgO-74" value="4" style="ellipse;whiteSpace=wrap;html=1;aspect=fixed;" vertex="1" parent="1">
          <mxGeometry x="955" y="320" width="50" height="50" as="geometry" />
        </mxCell>
        <mxCell id="lOXssVLxFtPVB_tmpfgO-82" style="rounded=0;orthogonalLoop=1;jettySize=auto;html=1;entryX=0;entryY=0;entryDx=0;entryDy=0;endArrow=none;endFill=0;strokeWidth=2;exitX=1;exitY=1;exitDx=0;exitDy=0;" edge="1" parent="1" source="lOXssVLxFtPVB_tmpfgO-36" target="lOXssVLxFtPVB_tmpfgO-37">
          <mxGeometry relative="1" as="geometry">
            <mxPoint x="242" y="442" as="sourcePoint" />
            <mxPoint x="203" y="477" as="targetPoint" />
            <Array as="points">
              <mxPoint x="285" y="445" />
            </Array>
          </mxGeometry>
        </mxCell>
        <mxCell id="lOXssVLxFtPVB_tmpfgO-84" style="rounded=0;orthogonalLoop=1;jettySize=auto;html=1;strokeWidth=2;endArrow=none;endFill=0;entryX=0.338;entryY=0.991;entryDx=0;entryDy=0;entryPerimeter=0;exitX=1;exitY=0;exitDx=0;exitDy=0;" edge="1" parent="1" source="lOXssVLxFtPVB_tmpfgO-42" target="lOXssVLxFtPVB_tmpfgO-47">
          <mxGeometry relative="1" as="geometry">
            <mxPoint x="275" y="575" as="sourcePoint" />
            <mxPoint x="405" y="575" as="targetPoint" />
          </mxGeometry>
        </mxCell>
        <mxCell id="lOXssVLxFtPVB_tmpfgO-86" style="rounded=0;orthogonalLoop=1;jettySize=auto;html=1;strokeWidth=2;endArrow=none;endFill=0;entryX=1;entryY=1;entryDx=0;entryDy=0;exitX=0;exitY=0;exitDx=0;exitDy=0;" edge="1" parent="1" source="lOXssVLxFtPVB_tmpfgO-47" target="lOXssVLxFtPVB_tmpfgO-39">
          <mxGeometry relative="1" as="geometry">
            <mxPoint x="448" y="557" as="sourcePoint" />
            <mxPoint x="482" y="520" as="targetPoint" />
          </mxGeometry>
        </mxCell>
        <mxCell id="lOXssVLxFtPVB_tmpfgO-88" style="rounded=0;orthogonalLoop=1;jettySize=auto;html=1;entryX=0;entryY=1;entryDx=0;entryDy=0;endArrow=none;endFill=0;strokeWidth=2;exitX=1;exitY=0;exitDx=0;exitDy=0;" edge="1" parent="1" source="lOXssVLxFtPVB_tmpfgO-45" target="lOXssVLxFtPVB_tmpfgO-37">
          <mxGeometry relative="1" as="geometry">
            <mxPoint x="278" y="443" as="sourcePoint" />
            <mxPoint x="322" y="477" as="targetPoint" />
            <Array as="points" />
          </mxGeometry>
        </mxCell>
      </root>
    </mxGraphModel>
  </diagram>
</mxfile>
